<svg width="16" height="12" viewBox="0 0 16 12" fill="none" xmlns="http://www.w3.org/2000/svg">
<path d="M13.1901 5.24985L9.47009 1.52985C9.33761 1.38767 9.26549 1.19963 9.26892 1.00532C9.27234 0.811023 9.35106 0.625638 9.48847 0.488225C9.62588 0.350811 9.81127 0.2721 10.0056 0.268672C10.1999 0.265244 10.3879 0.337366 10.5301 0.469846L15.5127 5.45245C15.5187 5.45803 15.5245 5.46372 15.5303 5.46952C15.671 5.61017 15.75 5.80093 15.75 5.99985C15.75 6.19876 15.671 6.38952 15.5303 6.53018C15.5244 6.53608 15.5184 6.54187 15.5124 6.54756L10.5301 11.5298C10.4608 11.6 10.3783 11.6555 10.2873 11.6933C10.1963 11.7311 10.0986 11.7503 10.0001 11.7498C9.90153 11.7503 9.80389 11.7311 9.71288 11.6933C9.62187 11.6555 9.53932 11.6 9.47007 11.5298C9.32962 11.3892 9.25073 11.1986 9.25073 10.9998C9.25073 10.8011 9.32962 10.6105 9.47007 10.4698L13.1901 6.74985H1C0.801088 6.74985 0.610322 6.67083 0.46967 6.53018C0.329018 6.38952 0.25 6.19876 0.25 5.99985C0.25 5.80093 0.329018 5.61017 0.46967 5.46952C0.610322 5.32887 0.801088 5.24985 1 5.24985H13.1901Z" fill="#16856C"/>
</svg>
