<svg width="18" height="18" viewBox="0 0 18 18" fill="none" xmlns="http://www.w3.org/2000/svg">
<path fill-rule="evenodd" clip-rule="evenodd" d="M5.875 2.1123V1.4873C5.875 1.32154 5.80915 1.16257 5.69194 1.04536C5.57473 0.928153 5.41576 0.862305 5.25 0.862305C5.08424 0.862305 4.92527 0.928153 4.80806 1.04536C4.69085 1.16257 4.625 1.32154 4.625 1.4873V2.1123H4C3.1712 2.1123 2.37634 2.44154 1.79029 3.0276C1.20424 3.61365 0.875 4.4085 0.875 5.2373V13.9873C0.875 14.8161 1.20424 15.611 1.79029 16.197C2.37634 16.7831 3.1712 17.1123 4 17.1123H14C14.8288 17.1123 15.6237 16.7831 16.2097 16.197C16.7958 15.611 17.125 14.8161 17.125 13.9873V5.2373C17.125 4.4085 16.7958 3.61365 16.2097 3.0276C15.6237 2.44154 14.8288 2.1123 14 2.1123H13.375V1.4873C13.375 1.32154 13.3092 1.16257 13.1919 1.04536C13.0747 0.928153 12.9158 0.862305 12.75 0.862305C12.5842 0.862305 12.4253 0.928153 12.3081 1.04536C12.1908 1.16257 12.125 1.32154 12.125 1.4873V2.1123H5.875ZM4.81044 4.42686C4.92719 4.54361 5.08491 4.61015 5.25 4.6123C5.41509 4.61015 5.57281 4.54361 5.68955 4.42686C5.8063 4.31011 5.87284 4.15239 5.875 3.9873V3.3623H12.125V3.9873C12.1272 4.15239 12.1937 4.31011 12.3104 4.42686C12.4272 4.54361 12.5849 4.61015 12.75 4.6123C12.9151 4.61015 13.0728 4.54361 13.1896 4.42686C13.3063 4.31011 13.3728 4.15239 13.375 3.9873V3.3623H14C14.4973 3.3623 14.9742 3.55985 15.3258 3.91148C15.6775 4.26311 15.875 4.74002 15.875 5.2373V6.27897H2.125V5.2373C2.125 4.74002 2.32254 4.26311 2.67417 3.91148C3.02581 3.55985 3.50272 3.3623 4 3.3623H4.625V3.9873C4.62716 4.15239 4.6937 4.31011 4.81044 4.42686ZM15.875 7.52897H2.125V13.9873C2.125 14.4846 2.32254 14.9615 2.67417 15.3131C3.02581 15.6648 3.50272 15.8623 4 15.8623H14C14.4973 15.8623 14.9742 15.6648 15.3258 15.3131C15.6775 14.9615 15.875 14.4846 15.875 13.9873V7.52897Z" fill="#FFA07A"/>
</svg>
