<svg width="42" height="38" viewBox="0 0 42 38" fill="none" xmlns="http://www.w3.org/2000/svg">
<path fill-rule="evenodd" clip-rule="evenodd" d="M6.5 24C6.5 23.1716 7.17157 22.5 8 22.5H10C10.8284 22.5 11.5 23.1716 11.5 24C11.5 24.8284 10.8284 25.5 10 25.5H8C7.17157 25.5 6.5 24.8284 6.5 24Z" fill="#C2CAC8"/>
<path fill-rule="evenodd" clip-rule="evenodd" d="M28.5 8.00002C28.5 7.17159 29.1716 6.50002 30 6.50002H32C32.8284 6.50002 33.5 7.17159 33.5 8.00002C33.5 8.82845 32.8284 9.50002 32 9.50002H30C29.1716 9.50002 28.5 8.82845 28.5 8.00002Z" fill="#C2CAC8"/>
<path fill-rule="evenodd" clip-rule="evenodd" d="M22.4749 13.5251C21.5907 12.641 20.302 12.2956 19.0941 12.6193C17.8863 12.9429 16.9429 13.8863 16.6193 15.0942C16.2956 16.302 16.6409 17.5907 17.5251 18.4749C18.1109 19.0607 18.1109 20.0104 17.5251 20.5962C16.9393 21.182 15.9896 21.182 15.4038 20.5962C13.7617 18.9542 13.1204 16.5608 13.7215 14.3177C14.3225 12.0746 16.0746 10.3225 18.3177 9.72149C20.5608 9.12046 22.9541 9.76175 24.5962 11.4038C25.182 11.9896 25.182 12.9394 24.5962 13.5251C24.0104 14.1109 23.0607 14.1109 22.4749 13.5251Z" fill="#C2CAC8"/>
<path fill-rule="evenodd" clip-rule="evenodd" d="M8 3.5C5.51472 3.5 3.5 5.51472 3.5 8V24C3.5 26.4853 5.51472 28.5 8 28.5H16C16.8284 28.5 17.5 29.1716 17.5 30C17.5 30.8284 16.8284 31.5 16 31.5H8C3.85786 31.5 0.5 28.1421 0.5 24V8C0.5 3.85786 3.85786 0.5 8 0.5H32C36.1421 0.5 39.5 3.85786 39.5 8V14C39.5 14.8284 38.8284 15.5 38 15.5C37.1716 15.5 36.5 14.8284 36.5 14V8C36.5 5.51472 34.4853 3.5 32 3.5H8Z" fill="#C2CAC8"/>
<path fill-rule="evenodd" clip-rule="evenodd" d="M31 19.5C26.8579 19.5 23.5 22.8579 23.5 27C23.5 31.1422 26.8579 34.5 31 34.5C35.1421 34.5 38.5 31.1422 38.5 27C38.5 22.8579 35.1421 19.5 31 19.5ZM20.5 27C20.5 21.201 25.201 16.5 31 16.5C36.799 16.5 41.5 21.201 41.5 27C41.5 32.799 36.799 37.5 31 37.5C25.201 37.5 20.5 32.799 20.5 27Z" fill="#C2CAC8"/>
<path fill-rule="evenodd" clip-rule="evenodd" d="M34.5607 24.7133C35.1464 25.2991 35.1464 26.2489 34.5607 26.8347L31.5607 29.8347C30.9749 30.4204 30.0251 30.4204 29.4393 29.8347L27.4393 27.8347C26.8536 27.2489 26.8536 26.2991 27.4393 25.7133C28.0251 25.1276 28.9749 25.1276 29.5607 25.7133L30.5 26.6527L32.4393 24.7133C33.0251 24.1276 33.9749 24.1276 34.5607 24.7133Z" fill="#C2CAC8"/>
</svg>
