<svg width="14" height="14" viewBox="0 0 14 14" fill="none" xmlns="http://www.w3.org/2000/svg">
<path d="M7 13.5C5.71442 13.5 4.45772 13.1188 3.3888 12.4046C2.31988 11.6903 1.48676 10.6752 0.994786 9.48745C0.502816 8.29973 0.374095 6.99279 0.624899 5.73192C0.875703 4.47104 1.49477 3.31285 2.40381 2.40381C3.31285 1.49477 4.47104 0.875703 5.73192 0.624899C6.99279 0.374095 8.29973 0.502816 9.48745 0.994786C10.6752 1.48676 11.6903 2.31988 12.4046 3.3888C13.1188 4.45772 13.5 5.71442 13.5 7C13.4982 8.72337 12.8129 10.3756 11.5942 11.5942C10.3756 12.8129 8.72337 13.4982 7 13.5ZM7 1.5C5.91221 1.5 4.84884 1.82257 3.94437 2.42692C3.0399 3.03127 2.33495 3.89025 1.91867 4.89524C1.50238 5.90024 1.39347 7.0061 1.60568 8.073C1.8179 9.1399 2.34173 10.1199 3.11092 10.8891C3.8801 11.6583 4.86011 12.1821 5.92701 12.3943C6.9939 12.6065 8.09977 12.4976 9.10476 12.0813C10.1098 11.6651 10.9687 10.9601 11.5731 10.0556C12.1774 9.15117 12.5 8.0878 12.5 7C12.4982 5.54185 11.9182 4.14393 10.8871 3.11286C9.85607 2.0818 8.45815 1.50177 7 1.5Z" fill="#485B57"/>
<path d="M6.07334 9.17334C5.94737 9.1727 5.82615 9.12517 5.73334 9.04L4.27334 7.58C4.17963 7.48364 4.12803 7.354 4.12991 7.2196C4.13178 7.0852 4.18697 6.95705 4.28334 6.86334C4.3797 6.76963 4.50934 6.71803 4.64374 6.71991C4.77814 6.72178 4.90629 6.77697 5 6.87334L6.08667 7.95334L9 5.04667C9.09736 4.99131 9.21049 4.97025 9.32124 4.98685C9.432 5.00345 9.53398 5.05675 9.61083 5.13822C9.68768 5.21968 9.73496 5.32459 9.74509 5.43612C9.75521 5.54766 9.7276 5.65936 9.66667 5.75334L6.5 8.93334C6.47765 8.96604 6.45316 8.99722 6.42667 9.02667C6.33219 9.11926 6.20561 9.1718 6.07334 9.17334Z" fill="#485B57"/>
</svg>
