<svg width="8" height="13" viewBox="0 0 8 13" fill="none" xmlns="http://www.w3.org/2000/svg">
<path d="M6.66668 12.6964C6.5353 12.697 6.40511 12.6714 6.28376 12.621C6.16241 12.5707 6.05234 12.4966 5.96002 12.4031L0.626682 7.06974C0.439415 6.88224 0.334229 6.62808 0.334229 6.36308C0.334229 6.09808 0.439415 5.84391 0.626682 5.65641L5.96002 0.323076C6.14958 0.146436 6.40031 0.0502723 6.65938 0.0548433C6.91845 0.0594143 7.16563 0.164363 7.34884 0.347581C7.53206 0.530798 7.63701 0.777979 7.64158 1.03705C7.64615 1.29612 7.54999 1.54684 7.37335 1.73641L2.74668 6.36308L7.37335 10.9897C7.56062 11.1772 7.6658 11.4314 7.6658 11.6964C7.6658 11.9614 7.56062 12.2156 7.37335 12.4031C7.28102 12.4966 7.17096 12.5707 7.04961 12.621C6.92826 12.6714 6.79807 12.697 6.66668 12.6964Z" fill="#16856C"/>
</svg>
