<svg width="20" height="20" viewBox="0 0 20 20" fill="none" xmlns="http://www.w3.org/2000/svg">
<path d="M14.64 14.75C14.5052 14.7524 14.3727 14.7141 14.26 14.64L9.34 11.71C9.22752 11.6428 9.13434 11.5476 9.06951 11.4337C9.00468 11.3198 8.9704 11.1911 8.97001 11.06V4.74C8.97001 4.54109 9.04902 4.35033 9.18967 4.20967C9.33033 4.06902 9.52109 3.99 9.72001 3.99C9.91892 3.99 10.1097 4.06902 10.2503 4.20967C10.391 4.35033 10.47 4.54109 10.47 4.74V10.64L15 13.36C15.1669 13.4582 15.2887 13.6179 15.3391 13.8049C15.3896 13.9918 15.3648 14.1911 15.27 14.36C15.207 14.4734 15.116 14.5687 15.0058 14.637C14.8955 14.7052 14.7696 14.7442 14.64 14.75Z" fill="#B5BEBC"/>
<path d="M10 19.75C8.07164 19.75 6.18657 19.1782 4.58319 18.1068C2.97982 17.0355 1.73013 15.5127 0.992179 13.7312C0.254224 11.9496 0.061142 9.98919 0.437348 8.09787C0.813554 6.20656 1.74215 4.46928 3.10571 3.10571C4.46928 1.74215 6.20656 0.813554 8.09787 0.437348C9.98919 0.061142 11.9496 0.254224 13.7312 0.992179C15.5127 1.73013 17.0355 2.97982 18.1068 4.58319C19.1782 6.18657 19.75 8.07164 19.75 10C19.7474 12.5851 18.7193 15.0635 16.8914 16.8914C15.0635 18.7193 12.5851 19.7474 10 19.75ZM10 1.75C8.36831 1.75 6.77326 2.23386 5.41655 3.14038C4.05984 4.0469 3.00242 5.33538 2.378 6.84287C1.75358 8.35036 1.5902 10.0092 1.90853 11.6095C2.22685 13.2098 3.01259 14.6799 4.16637 15.8336C5.32016 16.9874 6.79017 17.7732 8.39051 18.0915C9.99085 18.4098 11.6497 18.2464 13.1571 17.622C14.6646 16.9976 15.9531 15.9402 16.8596 14.5835C17.7661 13.2268 18.25 11.6317 18.25 10C18.2474 7.81278 17.3773 5.7159 15.8307 4.1693C14.2841 2.62269 12.1872 1.75265 10 1.75Z" fill="#B5BEBC"/>
</svg>
