<svg width="14" height="14" viewBox="0 0 14 14" fill="none" xmlns="http://www.w3.org/2000/svg">
<path d="M2.37385 0.959885C1.98333 0.569361 1.35017 0.569361 0.959641 0.959885C0.569117 1.35041 0.569117 1.98357 0.959641 2.3741L5.58587 7.00033L0.959641 11.6266C0.569117 12.0171 0.569117 12.6502 0.959641 13.0408C1.35017 13.4313 1.98333 13.4313 2.37385 13.0408L7.00008 8.41454L11.6263 13.0408C12.0168 13.4313 12.65 13.4313 13.0405 13.0408C13.431 12.6502 13.431 12.0171 13.0405 11.6266L8.41429 7.00033L13.0405 2.3741C13.431 1.98357 13.431 1.35041 13.0405 0.959885C12.65 0.569361 12.0168 0.569361 11.6263 0.959885L7.00008 5.58611L2.37385 0.959885Z" fill="#485B57"/>
</svg>
