<svg width="13" height="12" viewBox="0 0 13 12" fill="none" xmlns="http://www.w3.org/2000/svg">
<path d="M0.816994 6.26025C0.909148 6.3549 1.03462 6.40981 1.16667 6.41328C1.29594 6.41519 1.42091 6.36696 1.51538 6.27871C1.60985 6.19045 1.66646 6.06904 1.67334 5.93995C1.68932 4.99071 1.9845 4.06719 2.52204 3.28465C3.05958 2.50211 3.81567 1.89521 4.69596 1.53968C5.57626 1.18415 6.54176 1.09574 7.47198 1.28548C8.40221 1.47522 9.25595 1.93472 9.92667 2.60662C10.0335 2.71534 10.1352 2.82881 10.2315 2.94664H9.16667C9.03406 2.94664 8.90688 2.99931 8.81311 3.09308C8.71935 3.18685 8.66667 3.31403 8.66667 3.44664C8.66667 3.57924 8.71935 3.70642 8.81311 3.80019C8.90688 3.89396 9.03406 3.94664 9.16667 3.94664H11.4933C11.5617 3.95121 11.6304 3.94166 11.6949 3.91859C11.7595 3.89551 11.8186 3.85941 11.8686 3.81252C11.9187 3.76562 11.9585 3.70894 11.9857 3.646C12.0129 3.58306 12.0268 3.5152 12.0267 3.44664V1.0933C12.0267 0.960694 11.974 0.833517 11.8802 0.739749C11.7865 0.645981 11.6593 0.593302 11.5267 0.593302C11.3941 0.593302 11.2669 0.645981 11.1731 0.739749C11.0793 0.833517 11.0267 0.960694 11.0267 1.0933V2.33969C10.4508 1.62888 9.71232 1.05951 8.86724 0.683602C7.69011 0.159989 6.37263 0.041276 5.12085 0.346029C3.86908 0.650783 2.7536 1.36182 1.94889 2.36792C1.14418 3.37403 0.695609 4.61847 0.67334 5.90662C0.673294 6.03872 0.724841 6.16561 0.816994 6.26025Z" fill="#16856C"/>
<path d="M2.37338 10.1266C3.46852 11.2197 4.95271 11.8336 6.50005 11.8333C7.26627 11.8351 8.02529 11.6853 8.73344 11.3927C9.4416 11.1001 10.0849 10.6704 10.6264 10.1283C11.1679 9.58616 11.5969 8.94234 11.8887 8.23385C12.1805 7.52537 12.3294 6.76618 12.3267 5.99996C12.3267 5.86735 12.274 5.74017 12.1803 5.64641C12.0865 5.55264 11.9593 5.49996 11.8267 5.49996C11.6962 5.50642 11.5727 5.56117 11.4803 5.65357C11.3879 5.74598 11.3332 5.86944 11.3267 5.99996C11.3295 6.95663 11.0479 7.89255 10.5178 8.68889C9.98761 9.48522 9.23275 10.106 8.34905 10.4725C7.46536 10.839 6.49268 10.9346 5.55454 10.7472C4.61641 10.5598 3.75512 10.0978 3.08005 9.41996C2.96514 9.30306 2.85622 9.18067 2.75364 9.05328H3.86667C3.93233 9.05328 3.99735 9.04035 4.05801 9.01522C4.11868 8.9901 4.1738 8.95327 4.22023 8.90684C4.26666 8.86041 4.30349 8.80529 4.32861 8.74462C4.35374 8.68396 4.36667 8.61894 4.36667 8.55328C4.36667 8.48762 4.35374 8.4226 4.32861 8.36194C4.30349 8.30128 4.26666 8.24616 4.22023 8.19973C4.1738 8.1533 4.11868 8.11647 4.05801 8.09134C3.99735 8.06622 3.93233 8.05328 3.86667 8.05328H1.85456C1.83161 8.0517 1.80855 8.05169 1.78554 8.05328H1.50667C1.37407 8.05328 1.24689 8.10596 1.15312 8.19973C1.05935 8.2935 1.00667 8.42067 1.00667 8.55328V10.9066C1.0084 11.0387 1.06163 11.1649 1.15503 11.2583C1.24843 11.3517 1.3746 11.4049 1.50667 11.4066C1.63928 11.4066 1.76646 11.3539 1.86023 11.2602C1.95399 11.1664 2.00667 11.0392 2.00667 10.9066V9.72067C2.12248 9.8614 2.24483 9.99687 2.37338 10.1266Z" fill="#16856C"/>
</svg>
