<svg width="40" height="40" viewBox="0 0 40 40" fill="none" xmlns="http://www.w3.org/2000/svg">
<path d="M21.5 12V12.5314C22.0798 12.6012 22.6415 12.7866 23.1514 13.0783C23.8066 13.4532 24.3539 13.9912 24.74 14.64C24.9331 14.9729 24.9888 15.368 24.8955 15.7414C24.8021 16.1147 24.567 16.4371 24.24 16.64C23.9082 16.8299 23.5165 16.886 23.1448 16.7968C22.7731 16.7075 22.4494 16.4798 22.24 16.16C22.1273 15.9441 21.9579 15.763 21.75 15.6361C21.5421 15.5092 21.3035 15.4414 21.06 15.44H20.4035C20.2734 15.4777 20.1378 15.4982 20 15.5C19.8622 15.4982 19.7266 15.4777 19.5965 15.44H18.8C18.4998 15.4669 18.2178 15.5958 18.0009 15.8052C17.7841 16.0146 17.6454 16.2919 17.608 16.591C17.5706 16.8901 17.6368 17.193 17.7954 17.4494C17.954 17.7057 18.1956 17.9 18.48 18L22.24 18.94C23.2658 19.1874 24.1649 19.8034 24.7659 20.6708C25.367 21.5381 25.6282 22.5961 25.4997 23.6435C25.3713 24.6909 24.8622 25.6545 24.0693 26.3509C23.3519 26.981 22.4474 27.3525 21.5 27.4117V28C21.4948 28.3962 21.3351 28.7747 21.0549 29.0549C20.7747 29.3351 20.3962 29.4948 20 29.5C19.6038 29.4948 19.2253 29.3351 18.9451 29.0549C18.6649 28.7747 18.5052 28.3962 18.5 28V27.4686C17.9202 27.3988 17.3584 27.2134 16.8486 26.9217C16.1933 26.5468 15.6461 26.0088 15.26 25.36C15.1486 25.1918 15.0723 25.0029 15.0356 24.8045C14.9989 24.6061 15.0026 24.4024 15.0465 24.2054C15.0903 24.0085 15.1735 23.8225 15.2909 23.6585C15.4084 23.4944 15.5577 23.3558 15.73 23.2508C15.9023 23.1458 16.094 23.0766 16.2936 23.0475C16.4932 23.0183 16.6967 23.0297 16.8918 23.0809C17.0869 23.1322 17.2697 23.2223 17.4292 23.3459C17.5887 23.4694 17.7216 23.6239 17.82 23.8C17.9386 24.0094 18.1098 24.1842 18.3168 24.307C18.5238 24.4298 18.7593 24.4963 19 24.5H21.2C21.5448 24.5 21.8754 24.363 22.1192 24.1192C22.363 23.8754 22.5 23.5448 22.5 23.2C22.4999 22.9057 22.4014 22.6199 22.2202 22.388C22.039 22.1561 21.7855 21.9913 21.5 21.92L17.76 20.98C16.7342 20.7326 15.8351 20.1165 15.2341 19.2492C14.633 18.3819 14.3718 17.3238 14.5002 16.2764C14.6287 15.229 15.1378 14.2654 15.9307 13.5691C16.6481 12.9389 17.5526 12.5674 18.5 12.5082V12C18.5 11.6022 18.658 11.2206 18.9393 10.9393C19.2206 10.658 19.6022 10.5 20 10.5C20.3978 10.5 20.7794 10.658 21.0607 10.9393C21.342 11.2206 21.5 11.6022 21.5 12Z" fill="#4AA23A"/>
<path fill-rule="evenodd" clip-rule="evenodd" d="M9.5207 36.448C12.6521 38.4421 16.2876 39.5009 20 39.5C22.8454 39.4958 25.6555 38.8696 28.2335 37.6652C30.8115 36.4609 33.095 34.7074 34.9241 32.5278C36.7531 30.3481 38.0836 27.7949 38.8222 25.047C39.5608 22.2991 39.6898 19.423 39.2 16.62C38.5565 12.9638 36.8827 9.56726 34.3753 6.82957C31.8679 4.09188 28.6312 2.12682 25.0455 1.16534C21.4597 0.203869 17.674 0.285933 14.1334 1.40189C10.5927 2.51785 7.44409 4.62133 5.05771 7.46511C2.67133 10.3089 1.1463 13.7748 0.661865 17.4554C0.177429 21.1361 0.753718 24.8785 2.323 28.2429C3.89228 31.6073 6.38934 34.4539 9.5207 36.448ZM17.1 3.76C18.0566 3.58426 19.0274 3.49722 20 3.5C23.8725 3.50786 27.6186 4.87921 30.5809 7.37342C33.5432 9.86764 35.5326 13.3254 36.2 17.14C36.7632 20.3495 36.3623 23.654 35.0479 26.6358C33.7336 29.6175 31.5647 32.1427 28.8156 33.8921C26.0664 35.6416 22.8603 36.5367 19.6025 36.4645C16.3447 36.3922 13.1815 35.3558 10.5126 33.4861C7.84372 31.6165 5.789 28.9977 4.60815 25.9605C3.4273 22.9234 3.17333 19.6044 3.87833 16.423C4.58334 13.2416 6.21567 10.3406 8.56902 8.08668C10.9224 5.83276 13.8911 4.3271 17.1 3.76Z" fill="#4AA23A"/>
</svg>
