<svg width="13" height="12" viewBox="0 0 13 12" fill="none" xmlns="http://www.w3.org/2000/svg">
<path d="M2.81494 11.018C2.90834 11.1114 3.03451 11.1646 3.16659 11.1663C3.29866 11.1646 3.42483 11.1114 3.51823 11.018C3.61163 10.9246 3.66486 10.7984 3.66659 10.6663V2.53974L4.81319 3.68635C4.85935 3.73309 4.91439 3.77014 4.97506 3.79533C5.03574 3.82051 5.10083 3.83333 5.16652 3.83302C5.23222 3.83333 5.29731 3.82051 5.35799 3.79533C5.41866 3.77014 5.4737 3.73309 5.51986 3.68635C5.61349 3.5926 5.66609 3.46552 5.66609 3.33302C5.66609 3.20052 5.61349 3.07343 5.51986 2.97968L3.53329 0.993115C3.529 0.988487 3.52462 0.983932 3.52014 0.979454C3.42637 0.885686 3.29919 0.833008 3.16659 0.833008C3.03398 0.833008 2.9068 0.885686 2.81303 0.979454C2.80912 0.983365 2.80528 0.987334 2.80152 0.991358L0.813192 2.97968C0.764067 3.02546 0.724666 3.08066 0.697338 3.14199C0.67001 3.20332 0.655315 3.26953 0.654131 3.33667C0.652946 3.4038 0.665296 3.47049 0.690443 3.53275C0.71559 3.59501 0.75302 3.65156 0.800499 3.69904C0.847979 3.74652 0.904534 3.78395 0.966793 3.8091C1.02905 3.83424 1.09574 3.84659 1.16287 3.84541C1.23001 3.84423 1.29622 3.82953 1.35755 3.8022C1.41888 3.77488 1.47408 3.73547 1.51986 3.68635L2.66659 2.53962V10.6663C2.66831 10.7984 2.72154 10.9246 2.81494 11.018Z" fill="#003879"/>
<path d="M9.33325 9.45974V1.33301C9.33325 1.2004 9.38593 1.07322 9.4797 0.979454C9.57347 0.885686 9.70064 0.833008 9.83325 0.833008C9.96586 0.833008 10.093 0.885686 10.1868 0.979454C10.2806 1.07322 10.3333 1.2004 10.3333 1.33301V9.45962L11.4799 8.31301C11.5256 8.26388 11.5808 8.22448 11.6422 8.19715C11.7035 8.16983 11.7697 8.15513 11.8368 8.15395C11.904 8.15276 11.9707 8.16511 12.0329 8.19026C12.0952 8.21541 12.1517 8.25284 12.1992 8.30032C12.2467 8.3478 12.2841 8.40435 12.3093 8.46661C12.3344 8.52887 12.3468 8.59556 12.3456 8.66269C12.3444 8.72983 12.3297 8.79604 12.3024 8.85737C12.2751 8.9187 12.2357 8.9739 12.1865 9.01968L10.1865 11.0197C10.1404 11.0664 10.0853 11.1035 10.0247 11.1287C9.96398 11.1538 9.89889 11.1667 9.83319 11.1663C9.7675 11.1667 9.7024 11.1538 9.64173 11.1287C9.58105 11.1035 9.52602 11.0664 9.47986 11.0197L7.47986 9.01968C7.43073 8.9739 7.39133 8.9187 7.364 8.85737C7.33668 8.79604 7.32198 8.72983 7.3208 8.66269C7.31961 8.59556 7.33196 8.52887 7.35711 8.46661C7.38226 8.40435 7.41969 8.3478 7.46717 8.30032C7.51465 8.25284 7.5712 8.21541 7.63346 8.19026C7.69572 8.16511 7.7624 8.15276 7.82954 8.15395C7.89668 8.15513 7.96288 8.16983 8.02422 8.19715C8.08555 8.22448 8.14075 8.26388 8.18652 8.31301L9.33325 9.45974Z" fill="#003879"/>
</svg>
