<svg width="18" height="18" viewBox="0 0 18 18" fill="none" xmlns="http://www.w3.org/2000/svg">
<path d="M9 0.24707C9.41421 0.24707 9.75 0.582857 9.75 0.99707V9.85795L12.0273 7.58069C12.3202 7.2878 12.795 7.2878 13.0879 7.58069C13.3808 7.87359 13.3808 8.34846 13.0879 8.64135L9.53044 12.1988C9.44967 12.2796 9.35505 12.3381 9.25424 12.3743C9.17485 12.4029 9.08924 12.4185 9 12.4185C8.78886 12.4185 8.5981 12.3313 8.4618 12.1909L4.9123 8.64135C4.6194 8.34846 4.6194 7.87359 4.9123 7.58069C5.20519 7.2878 5.68006 7.2878 5.97296 7.58069L8.25 9.85774V0.99707C8.25 0.582857 8.58579 0.24707 9 0.24707Z" fill="#16856C"/>
<path d="M1.74658 13.4461C1.74658 13.0319 1.4108 12.6961 0.996582 12.6961C0.582368 12.6961 0.246582 13.0319 0.246582 13.4461C0.246582 15.8251 2.17511 17.7536 4.55406 17.7536H13.4458C15.8247 17.7536 17.7532 15.8251 17.7532 13.4461C17.7532 13.0319 17.4175 12.6961 17.0032 12.6961C16.589 12.6961 16.2532 13.0319 16.2532 13.4461C16.2532 14.9967 14.9963 16.2536 13.4458 16.2536H4.55406C3.00353 16.2536 1.74658 14.9967 1.74658 13.4461Z" fill="#16856C"/>
</svg>
