<svg width="14" height="18" viewBox="0 0 14 18" fill="none" xmlns="http://www.w3.org/2000/svg">
<path d="M4.10794 11.0204C4.35202 10.7763 4.74775 10.7763 4.99183 11.0204L5.61637 11.6449V8.15397C5.61637 7.80879 5.8962 7.52897 6.24137 7.52897C6.58655 7.52897 6.86637 7.80879 6.86637 8.15397V11.6451L7.3911 11.1204C7.63518 10.8763 8.0309 10.8763 8.27498 11.1204C8.51906 11.3644 8.51906 11.7602 8.27498 12.0042L6.69249 13.5867L6.6835 13.5959C6.60397 13.6754 6.50835 13.7291 6.40711 13.7568C6.35433 13.7712 6.29876 13.779 6.24137 13.779L6.23734 13.779C6.15323 13.7784 6.07307 13.7613 5.99996 13.7306C5.93093 13.7018 5.86603 13.66 5.80896 13.6052C5.80273 13.5993 5.79662 13.5932 5.79063 13.5869L4.10794 11.9042C3.86387 11.6602 3.86387 11.2644 4.10794 11.0204Z" fill="#FFA07A"/>
<path fill-rule="evenodd" clip-rule="evenodd" d="M0.541504 3.15397C0.541504 1.88796 1.56716 0.862305 2.83317 0.862305H8.80984C9.41745 0.862305 10.0005 1.10412 10.4301 1.5337L12.7868 3.89036C13.2164 4.31994 13.4582 4.90302 13.4582 5.51064V14.8206C13.4582 16.0866 12.4325 17.1123 11.1665 17.1123H2.83317C1.56716 17.1123 0.541504 16.0866 0.541504 14.8206V3.15397ZM12.0899 5.02897C12.0413 4.9359 11.9785 4.84985 11.9029 4.77425L9.54623 2.41758C9.47063 2.34198 9.38457 2.27918 9.2915 2.2306V4.82064C9.2915 4.93546 9.38502 5.02897 9.49984 5.02897H12.0899ZM8.0415 2.1123V4.82064C8.0415 5.62582 8.69466 6.27897 9.49984 6.27897H12.2082V14.8206C12.2082 15.3963 11.7422 15.8623 11.1665 15.8623H2.83317C2.25752 15.8623 1.7915 15.3963 1.7915 14.8206V3.15397C1.7915 2.57832 2.25752 2.1123 2.83317 2.1123H8.0415Z" fill="#FFA07A"/>
</svg>
