<svg width="20" height="20" viewBox="0 0 20 20" fill="none" xmlns="http://www.w3.org/2000/svg">
<path d="M3.24731 3.99734C3.24731 1.92559 4.92681 0.246094 6.99856 0.246094H16.0023C18.0741 0.246094 19.7536 1.92559 19.7536 3.99734V16.0023C19.7536 18.0741 18.0741 19.7536 16.0023 19.7536H6.99856C4.92681 19.7536 3.24731 18.0741 3.24731 16.0023V13.0011C3.24731 12.5869 3.5831 12.2511 3.99731 12.2511C4.41153 12.2511 4.74731 12.5869 4.74731 13.0011V16.0023C4.74731 17.2457 5.75523 18.2536 6.99856 18.2536H16.0023C17.2456 18.2536 18.2536 17.2457 18.2536 16.0023V3.99734C18.2536 2.75401 17.2456 1.74609 16.0023 1.74609H6.99856C5.75523 1.74609 4.74731 2.75401 4.74731 3.99734V6.99859C4.74731 7.41281 4.41153 7.74859 3.99731 7.74859C3.5831 7.74859 3.24731 7.41281 3.24731 6.99859V3.99734Z" fill="#16856C"/>
<path d="M9.46943 6.46827C9.76232 6.17537 10.2372 6.17537 10.5301 6.46827L13.5246 9.46277C13.6643 9.599 13.7511 9.78929 13.7511 9.99985C13.7511 10.2105 13.6643 10.4008 13.5245 10.537L10.5301 13.5314C10.2372 13.8243 9.76232 13.8243 9.46943 13.5314C9.17653 13.2385 9.17653 12.7637 9.46943 12.4708L11.1903 10.7498H0.996094C0.58188 10.7498 0.246094 10.4141 0.246094 9.99985C0.246094 9.58563 0.58188 9.24985 0.996094 9.24985H11.1903L9.46943 7.52893C9.17653 7.23603 9.17653 6.76116 9.46943 6.46827Z" fill="#16856C"/>
</svg>
