<svg width="20" height="20" viewBox="0 0 20 20" fill="none" xmlns="http://www.w3.org/2000/svg">
<path d="M10 10.75C9.90146 10.7505 9.80382 10.7312 9.71281 10.6935C9.62179 10.6557 9.53924 10.6001 9.47 10.53C9.32955 10.3894 9.25066 10.1988 9.25066 10C9.25066 9.80125 9.32955 9.61063 9.47 9.47L17.19 1.75H12C11.8011 1.75 11.6103 1.67098 11.4697 1.53033C11.329 1.38968 11.25 1.19891 11.25 1C11.25 0.801088 11.329 0.610322 11.4697 0.46967C11.6103 0.329018 11.8011 0.25 12 0.25H19.06C19.2063 0.262482 19.3455 0.318176 19.46 0.41L19.57 0.51C19.6845 0.643891 19.7482 0.813824 19.75 0.99V7.99C19.75 8.18891 19.671 8.37968 19.5303 8.52033C19.3897 8.66098 19.1989 8.74 19 8.74C18.8011 8.74 18.6103 8.66098 18.4697 8.52033C18.329 8.37968 18.25 8.18891 18.25 7.99V2.81L10.53 10.53C10.4608 10.6001 10.3782 10.6557 10.2872 10.6935C10.1962 10.7312 10.0985 10.7505 10 10.75Z" fill="#16856C"/>
<path d="M17 19.75H3C2.27065 19.75 1.57118 19.4603 1.05546 18.9445C0.539731 18.4288 0.25 17.7293 0.25 17V3C0.25 2.27065 0.539731 1.57118 1.05546 1.05546C1.57118 0.539731 2.27065 0.25 3 0.25H7C7.19891 0.25 7.38968 0.329018 7.53033 0.46967C7.67098 0.610322 7.75 0.801088 7.75 1C7.75 1.19891 7.67098 1.38968 7.53033 1.53033C7.38968 1.67098 7.19891 1.75 7 1.75H3C2.66848 1.75 2.35054 1.8817 2.11612 2.11612C1.8817 2.35054 1.75 2.66848 1.75 3V17C1.75 17.3315 1.8817 17.6495 2.11612 17.8839C2.35054 18.1183 2.66848 18.25 3 18.25H17C17.3315 18.25 17.6495 18.1183 17.8839 17.8839C18.1183 17.6495 18.25 17.3315 18.25 17V13C18.25 12.8011 18.329 12.6103 18.4697 12.4697C18.6103 12.329 18.8011 12.25 19 12.25C19.1989 12.25 19.3897 12.329 19.5303 12.4697C19.671 12.6103 19.75 12.8011 19.75 13V17C19.75 17.7293 19.4603 18.4288 18.9445 18.9445C18.4288 19.4603 17.7293 19.75 17 19.75Z" fill="#16856C"/>
</svg>
