<svg width="22" height="20" viewBox="0 0 22 20" fill="none" xmlns="http://www.w3.org/2000/svg">
<path fill-rule="evenodd" clip-rule="evenodd" d="M13.5769 4.43462C13.601 4.46851 13.628 4.50054 13.6578 4.53033C13.7152 4.58771 13.7809 4.63483 13.8521 4.67051L19.0781 9.15C19.2151 9.26597 19.3887 9.32973 19.5681 9.33C19.72 9.32651 19.8672 9.27702 19.9903 9.18805C20.1134 9.09908 20.2065 8.97485 20.2575 8.83177C20.3084 8.6887 20.3147 8.53353 20.2756 8.38679C20.2364 8.24005 20.1536 8.10866 20.0381 8.01L19.0681 7.17854V1.75C19.0681 1.35218 18.9101 0.970644 18.6288 0.68934C18.3475 0.408035 17.9659 0.25 17.5681 0.25H14.9381C14.5403 0.25 14.1588 0.408035 13.8774 0.68934C13.5961 0.970644 13.4381 1.35218 13.4381 1.75V2.35282L12.3382 1.41C11.8415 0.978732 11.2059 0.741261 10.5481 0.741261C9.8904 0.741261 9.25477 0.978732 8.75815 1.41L1.05815 8.01C0.906976 8.14261 0.814673 8.32984 0.801545 8.5305C0.788418 8.73117 0.855542 8.92883 0.98815 9.08C1.12076 9.23117 1.30799 9.32348 1.50865 9.3366C1.70932 9.34973 1.90698 9.28261 2.05815 9.15L2.10803 9.10724V17.25H1.56799C1.36908 17.25 1.17832 17.329 1.03766 17.4697C0.897011 17.6103 0.817993 17.8011 0.817993 18C0.817993 18.1989 0.897011 18.3897 1.03766 18.5303C1.17832 18.671 1.36908 18.75 1.56799 18.75H10.568C10.7669 18.75 10.9577 18.671 11.0983 18.5303C11.239 18.3897 11.318 18.1989 11.318 18C11.318 17.8011 11.239 17.6103 11.0983 17.4697C10.9577 17.329 10.7669 17.25 10.568 17.25H8.31799V13C8.31799 12.9337 8.34433 12.8701 8.39122 12.8232C8.4381 12.7763 8.50169 12.75 8.56799 12.75H10.568C10.7669 12.75 10.9577 12.671 11.0983 12.5303C11.239 12.3897 11.318 12.1989 11.318 12C11.318 11.8011 11.239 11.6103 11.0983 11.4697C10.9577 11.329 10.7669 11.25 10.568 11.25H8.56799C8.10386 11.25 7.65874 11.4344 7.33056 11.7626C7.00237 12.0908 6.81799 12.5359 6.81799 13V17.25H3.60803V7.82153L9.75815 2.55C9.98331 2.35575 10.2708 2.24888 10.5681 2.24888C10.8655 2.24888 11.153 2.35575 11.3781 2.55L13.5769 4.43462ZM17.5681 5.89282V1.75H14.9381V3.63854L17.5681 5.89282Z" fill="#1F7965"/>
<path fill-rule="evenodd" clip-rule="evenodd" d="M15.6068 19.555C15.9109 19.6839 16.2378 19.7502 16.5681 19.75V19.74C16.8973 19.7393 17.2232 19.6735 17.5269 19.5465C17.8307 19.4195 18.1063 19.2338 18.3381 19L20.4581 16.86C21.0169 16.2979 21.3305 15.5376 21.3305 14.745C21.3305 13.9524 21.0169 13.1921 20.4581 12.63C19.9482 12.1289 19.2762 11.8263 18.563 11.7768C17.8498 11.7273 17.1423 11.9341 16.5681 12.36C15.9609 11.968 15.2325 11.8084 14.517 11.9106C13.8015 12.0127 13.1469 12.3698 12.6736 12.916C12.2004 13.4623 11.9402 14.1611 11.941 14.8839C11.9419 15.6066 12.2036 16.3048 12.6781 16.85L14.7981 19C15.0277 19.2374 15.3027 19.4262 15.6068 19.555ZM13.7781 13.68C14.0423 13.4113 14.4014 13.257 14.7781 13.25C14.9734 13.256 15.1654 13.3016 15.3425 13.3841C15.5195 13.4666 15.678 13.5843 15.8081 13.73L16.0281 13.96C16.0984 14.0322 16.1823 14.0897 16.275 14.1292C16.3677 14.1687 16.4673 14.1894 16.5681 14.19C16.6675 14.1903 16.766 14.1701 16.8572 14.1305C16.9484 14.0909 17.0304 14.0329 17.0981 13.96L17.3281 13.73C17.603 13.4601 17.9728 13.3088 18.3581 13.3088C18.7434 13.3088 19.1132 13.4601 19.3881 13.73C19.6625 14.0166 19.8157 14.3982 19.8157 14.795C19.8157 15.1918 19.6625 15.5734 19.3881 15.86L17.2681 18C17.0835 18.1884 16.8319 18.2962 16.5681 18.3C16.3043 18.2962 16.0527 18.1884 15.8681 18L13.7781 15.81C13.5037 15.5234 13.3505 15.1418 13.3505 14.745C13.3505 14.3482 13.5037 13.9666 13.7781 13.68Z" fill="#1F7965"/>
</svg>
