<svg width="18" height="18" viewBox="0 0 18 18" fill="none" xmlns="http://www.w3.org/2000/svg">
<path d="M8.41211 6.56789C8.54915 6.65946 8.71026 6.70833 8.87508 6.70833C9.0961 6.70833 9.30806 6.62054 9.46434 6.46426C9.62062 6.30798 9.70842 6.09601 9.70842 5.875C9.70842 5.71018 9.65954 5.54907 9.56797 5.41203C9.47641 5.27498 9.34626 5.16817 9.19398 5.1051C9.04171 5.04203 8.87416 5.02553 8.71251 5.05768C8.55086 5.08983 8.40237 5.1692 8.28583 5.28575C8.16928 5.40229 8.08992 5.55077 8.05776 5.71243C8.02561 5.87408 8.04211 6.04163 8.10518 6.1939C8.16826 6.34618 8.27507 6.47632 8.41211 6.56789Z" fill="#16856C"/>
<path d="M8.16667 12.5417C8.00091 12.5417 7.84194 12.4758 7.72473 12.3586C7.60751 12.2414 7.54167 12.0824 7.54167 11.9167C7.54167 11.7509 7.60751 11.5919 7.72473 11.4747C7.84194 11.3575 8.00091 11.2917 8.16667 11.2917H8.50833V9H8.16667C8.00091 9 7.84194 8.93415 7.72473 8.81694C7.60751 8.69973 7.54167 8.54076 7.54167 8.375C7.54167 8.20924 7.60751 8.05027 7.72473 7.93306C7.84194 7.81585 8.00091 7.75 8.16667 7.75H9.125C9.29009 7.75216 9.44781 7.8187 9.56456 7.93545C9.6813 8.05219 9.74784 8.20991 9.75 8.375V11.2917H10.0917C10.2574 11.2917 10.4164 11.3575 10.5336 11.4747C10.6508 11.5919 10.7167 11.7509 10.7167 11.9167C10.7167 12.0824 10.6508 12.2414 10.5336 12.3586C10.4164 12.4758 10.2574 12.5417 10.0917 12.5417H8.16667Z" fill="#16856C"/>
<path fill-rule="evenodd" clip-rule="evenodd" d="M4.486 15.7557C5.82214 16.6485 7.39303 17.125 9 17.125C11.1542 17.1228 13.2196 16.2661 14.7428 14.7428C16.2661 13.2196 17.1228 11.1542 17.125 9C17.125 7.39303 16.6485 5.82214 15.7557 4.486C14.8629 3.14985 13.594 2.10844 12.1093 1.49348C10.6247 0.87852 8.99099 0.717618 7.4149 1.03112C5.8388 1.34463 4.39106 2.11846 3.25476 3.25476C2.11846 4.39106 1.34463 5.8388 1.03112 7.4149C0.717618 8.99099 0.87852 10.6247 1.49348 12.1093C2.10844 13.594 3.14985 14.8629 4.486 15.7557ZM5.18046 3.28365C6.31105 2.52822 7.64026 2.125 9 2.125C10.8227 2.12721 12.5701 2.85225 13.8589 4.14108C15.1478 5.42992 15.8728 7.17732 15.875 9C15.875 10.3598 15.4718 11.689 14.7164 12.8195C13.9609 13.9501 12.8872 14.8313 11.631 15.3517C10.3747 15.872 8.99238 16.0082 7.65876 15.7429C6.32514 15.4776 5.10013 14.8229 4.13864 13.8614C3.17716 12.8999 2.52238 11.6749 2.2571 10.3413C1.99183 9.00763 2.12798 7.6253 2.64833 6.36906C3.16868 5.11281 4.04987 4.03908 5.18046 3.28365Z" fill="#16856C"/>
</svg>
