<svg width="18" height="17" viewBox="0 0 18 17" fill="none" xmlns="http://www.w3.org/2000/svg">
<path fill-rule="evenodd" clip-rule="evenodd" d="M14.8333 14.612C14.3722 14.6126 13.9217 14.4731 13.5417 14.212L10.475 12.112H8.14699L8.64168 13.3536C8.76877 13.6803 8.81468 14.033 8.7755 14.3814C8.73631 14.7297 8.61318 15.0633 8.41668 15.3536C8.22194 15.6383 7.96085 15.8712 7.65596 16.0324C7.35107 16.1935 7.01154 16.278 6.66668 16.2786C6.23947 16.2802 5.82186 16.152 5.46917 15.9109C5.11647 15.6698 4.84534 15.3273 4.69168 14.9286L3.47712 11.8724C2.93996 11.6765 2.44642 11.3647 2.03437 10.9526C1.29204 10.2103 0.875 9.20346 0.875 8.15365V7.32031C0.875 6.2705 1.29204 5.26368 2.03437 4.52135C2.7767 3.77902 3.78352 3.36198 4.83333 3.36198H10.475L13.5417 1.26198C13.8859 1.02707 14.2877 0.89049 14.7039 0.866942C15.12 0.843395 15.5346 0.93377 15.9032 1.12834C16.2718 1.32291 16.5803 1.61431 16.7956 1.97118C17.0109 2.32805 17.1248 2.73687 17.125 3.15365V12.3203C17.1228 12.9274 16.8807 13.509 16.4514 13.9383C16.0221 14.3676 15.4404 14.6098 14.8333 14.612ZM4.92357 12.112L5.85835 14.4703C5.9215 14.6118 6.02042 14.7344 6.14538 14.826C6.27034 14.9176 6.41701 14.9751 6.57094 14.9927C6.72487 15.0104 6.88074 14.9877 7.0232 14.9267C7.16566 14.8658 7.28979 14.7688 7.38335 14.6453C7.4709 14.5269 7.5255 14.3874 7.54161 14.241C7.55771 14.0946 7.53473 13.9466 7.47501 13.812L6.80041 12.112H4.92357ZM7.24169 10.862C7.23057 10.8617 7.21945 10.8617 7.20833 10.862H4.83333C4.11571 10.8598 3.42812 10.5737 2.92068 10.0663C2.41325 9.55886 2.1272 8.87127 2.125 8.15365V7.32031C2.1272 6.60269 2.41325 5.9151 2.92068 5.40766C3.42812 4.90023 4.11571 4.61418 4.83333 4.61198H10.0417V10.862H7.24169ZM14.2417 13.1536L11.2917 11.1565V4.31747L14.2417 2.32031C14.3972 2.2074 14.5808 2.13936 14.7723 2.12359C14.9639 2.10783 15.1561 2.14495 15.328 2.23091C15.5 2.31687 15.645 2.44837 15.7473 2.61108C15.8496 2.77378 15.9053 2.96146 15.9083 3.15365V12.3203C15.9053 12.5125 15.8496 12.7002 15.7473 12.8629C15.645 13.0256 15.5 13.1571 15.328 13.2431C15.1561 13.329 14.9639 13.3661 14.7723 13.3504C14.5808 13.3346 14.3972 13.2666 14.2417 13.1536Z" fill="#FFA07A"/>
</svg>
