<svg width="24" height="24" viewBox="0 0 24 24" fill="none" xmlns="http://www.w3.org/2000/svg">
<path fill-rule="evenodd" clip-rule="evenodd" d="M14.4777 5.73838C13.0663 4.41796 10.9224 4.42054 9.51398 5.74615C8.15774 7.02262 8.18866 9.24369 9.54611 10.686C10.8226 12.0422 13.0436 12.0113 14.4859 10.6538C15.8595 9.36109 15.8858 7.15501 14.4777 5.73838ZM8.48594 4.65385C10.4747 2.78205 13.5252 2.78205 15.514 4.65385C15.5195 4.65904 15.5249 4.66431 15.5303 4.66967C17.514 6.65336 17.5378 9.84136 15.514 11.7462C13.5563 13.5887 10.3773 13.7578 8.45381 11.714C6.61126 9.75631 6.44218 6.57738 8.48594 4.65385ZM12 16.35C9.19266 16.35 6.57353 17.651 5.71147 20.2372C5.58049 20.6301 5.15575 20.8425 4.76279 20.7115C4.36983 20.5805 4.15746 20.1558 4.28845 19.7628C5.42639 16.349 8.80726 14.85 12 14.85C15.1846 14.85 18.5868 16.3462 19.6183 19.7845C19.7374 20.1812 19.5122 20.5993 19.1155 20.7184C18.7187 20.8374 18.3006 20.6123 18.1816 20.2155C17.4131 17.6538 14.8153 16.35 12 16.35Z" fill="#16856C"/>
</svg>
