<svg width="18" height="18" viewBox="0 0 18 18" fill="none" xmlns="http://www.w3.org/2000/svg">
<path d="M9.99999 1.45801C9.99999 0.905723 9.55228 0.458008 8.99999 0.458008C8.44771 0.458008 7.99999 0.905723 7.99999 1.45801V8.00048H1.45752C0.905235 8.00048 0.45752 8.44819 0.45752 9.00048C0.45752 9.55276 0.905235 10.0005 1.45752 10.0005H7.99999V16.5429C7.99999 17.0952 8.44771 17.543 8.99999 17.5429C9.55228 17.5429 9.99999 17.0952 9.99999 16.5429V10.0005H16.5425C17.0947 10.0005 17.5425 9.55276 17.5425 9.00048C17.5425 8.44819 17.0947 8.00048 16.5425 8.00048H9.99999V1.45801Z" fill="#485B57"/>
</svg>
