<svg width="20" height="20" viewBox="0 0 20 20" fill="none" xmlns="http://www.w3.org/2000/svg">
<path fill-rule="evenodd" clip-rule="evenodd" d="M10.75 7.67425C11.4651 7.52828 12.1279 7.17544 12.6517 6.65165C13.3549 5.94839 13.75 4.99456 13.75 4C13.75 3.25832 13.5301 2.5333 13.118 1.91661C12.706 1.29993 12.1203 0.819282 11.4351 0.535453C10.7498 0.251625 9.99584 0.177362 9.26841 0.322057C8.54099 0.466752 7.8728 0.823905 7.34835 1.34835C6.8239 1.8728 6.46675 2.54098 6.32206 3.26841C6.17736 3.99584 6.25163 4.74984 6.53545 5.43506C6.81928 6.12029 7.29993 6.70596 7.91661 7.11801C8.32281 7.38942 8.776 7.57748 9.25 7.67424V15C9.25259 15.1981 9.33244 15.3874 9.47253 15.5275C9.61263 15.6676 9.80189 15.7474 10 15.75C10.1981 15.7474 10.3874 15.6676 10.5275 15.5275C10.6676 15.3874 10.7474 15.1981 10.75 15V7.67425ZM9.99716 6.25C10.2922 6.25037 10.5858 6.19272 10.861 6.07873C11.2722 5.90843 11.6236 5.62005 11.8708 5.25003C12.118 4.88002 12.25 4.44501 12.25 4C12.25 3.40326 12.0129 2.83097 11.591 2.40901C11.169 1.98705 10.5967 1.75 10 1.75C9.55499 1.75 9.11998 1.88196 8.74997 2.1292C8.37996 2.37643 8.09157 2.72783 7.92127 3.13896C7.75098 3.5501 7.70642 4.0025 7.79323 4.43896C7.88005 4.87541 8.09434 5.27632 8.40901 5.59099C8.72368 5.90566 9.12459 6.11995 9.56105 6.20677C9.70537 6.23548 9.85142 6.24982 9.99716 6.25Z" fill="white"/>
<path d="M10 19.75C5.27 19.75 0.25 18.26 0.25 15.5C0.25 13.57 2.8 12.03 6.9 11.5C6.9973 11.4859 7.09644 11.4914 7.1916 11.5161C7.28677 11.5408 7.37606 11.5842 7.45426 11.6438C7.53247 11.7034 7.59801 11.7779 7.64707 11.8631C7.69613 11.9483 7.72772 12.0425 7.74 12.14C7.75555 12.2386 7.75125 12.3394 7.72735 12.4363C7.70345 12.5333 7.66044 12.6245 7.60083 12.7046C7.54122 12.7847 7.46621 12.8521 7.38021 12.9028C7.29421 12.9535 7.19894 12.9866 7.1 13C3.75 13.46 1.75 14.66 1.75 15.55C1.75 16.67 4.96 18.3 10 18.3C15.04 18.3 18.25 16.67 18.25 15.55C18.25 14.66 16.25 13.46 12.9 13C12.802 12.9865 12.7077 12.9538 12.6224 12.9037C12.5372 12.8536 12.4627 12.7871 12.4032 12.7081C12.3437 12.6291 12.3004 12.5392 12.2758 12.4434C12.2513 12.3476 12.2459 12.2479 12.26 12.15C12.2723 12.0525 12.3039 11.9583 12.3529 11.8731C12.402 11.7879 12.4675 11.7134 12.5457 11.6538C12.6239 11.5942 12.7132 11.5508 12.8084 11.5261C12.9036 11.5014 13.0027 11.4959 13.1 11.51C17.2 12.08 19.75 13.62 19.75 15.51C19.75 18.26 14.73 19.75 10 19.75Z" fill="white"/>
</svg>
