<svg width="12" height="14" viewBox="0 0 12 14" fill="none" xmlns="http://www.w3.org/2000/svg">
<path d="M6.00004 8.16667C5.50559 8.16667 5.02224 8.02004 4.61112 7.74534C4.19999 7.47064 3.87956 7.08019 3.69034 6.62337C3.50112 6.16656 3.45161 5.66389 3.54808 5.17894C3.64454 4.69399 3.88264 4.24853 4.23227 3.8989C4.58191 3.54927 5.02736 3.31117 5.51232 3.2147C5.99727 3.11824 6.49993 3.16775 6.95675 3.35697C7.41356 3.54619 7.80401 3.86662 8.07872 4.27774C8.35342 4.68886 8.50004 5.17221 8.50004 5.66667C8.50004 6.32971 8.23665 6.96559 7.76781 7.43443C7.29897 7.90328 6.66308 8.16667 6.00004 8.16667ZM6.00004 4.16667C5.70337 4.16667 5.41336 4.25464 5.16669 4.41946C4.92001 4.58428 4.72775 4.81855 4.61422 5.09264C4.50069 5.36673 4.47098 5.66833 4.52886 5.9593C4.58674 6.25027 4.7296 6.51755 4.93938 6.72733C5.14916 6.93711 5.41643 7.07997 5.70741 7.13785C5.99838 7.19572 6.29998 7.16602 6.57407 7.05249C6.84816 6.93895 7.08242 6.7467 7.24725 6.50002C7.41207 6.25335 7.50004 5.96334 7.50004 5.66667C7.50004 5.26884 7.34201 4.88731 7.0607 4.60601C6.7794 4.3247 6.39787 4.16667 6.00004 4.16667Z" fill="#FFA07A"/>
<path d="M6.00004 13.5C5.8837 13.4991 5.77103 13.4592 5.68004 13.3867C5.48671 13.2267 0.833374 9.38667 0.833374 5.66667C0.833374 4.29638 1.37772 2.98222 2.34666 2.01328C3.31559 1.04434 4.62976 0.5 6.00004 0.5C7.37033 0.5 8.68449 1.04434 9.65343 2.01328C10.6224 2.98222 11.1667 4.29638 11.1667 5.66667C11.1667 9.36 6.50004 13.2267 6.32004 13.3867C6.22906 13.4592 6.11638 13.4991 6.00004 13.5ZM6.00004 1.5C4.89497 1.5 3.83516 1.93899 3.05376 2.72039C2.27236 3.50179 1.83337 4.5616 1.83337 5.66667C1.83337 8.38 4.97337 11.42 6.00004 12.3333C7.02004 11.4133 10.1667 8.33333 10.1667 5.66667C10.1667 4.5616 9.72772 3.50179 8.94632 2.72039C8.16492 1.93899 7.10511 1.5 6.00004 1.5Z" fill="#FFA07A"/>
</svg>
