<svg width="18" height="18" viewBox="0 0 18 18" fill="none" xmlns="http://www.w3.org/2000/svg">
<path fill-rule="evenodd" clip-rule="evenodd" d="M16.7492 1.25082C15.4148 -0.0836058 13.2513 -0.0836058 11.9168 1.25082C11.0402 2.12747 10.7394 3.36196 11.0146 4.48412L6.31153 6.83567C6.24034 6.74889 6.16422 6.6648 6.08319 6.58376C4.74876 5.24934 2.58524 5.24934 1.25082 6.58376C-0.0836058 7.91819 -0.0836058 10.0817 1.25082 11.4161C2.58524 12.7506 4.74876 12.7506 6.08319 11.4161C6.1642 11.3351 6.2403 11.2511 6.31147 11.1643L11.0146 13.5159C10.7395 14.638 11.0402 15.8725 11.9168 16.7491C13.2513 18.0836 15.4148 18.0836 16.7492 16.7491C18.0836 15.4147 18.0836 13.2512 16.7492 11.9168C15.4148 10.5823 13.2513 10.5823 11.9168 11.9168C11.8342 11.9994 11.7568 12.0851 11.6844 12.1737L6.98382 9.82342C7.11739 9.28322 7.1174 8.71677 6.98384 8.17657L11.6844 5.82629C11.7568 5.91484 11.8342 6.0006 11.9168 6.08319C13.2513 7.41761 15.4148 7.41761 16.7492 6.08319C18.0836 4.74876 18.0836 2.58524 16.7492 1.25082ZM15.6885 2.31148C14.9399 1.56284 13.7261 1.56284 12.9775 2.31148C12.2289 3.06011 12.2289 4.27389 12.9775 5.02253C13.7261 5.77116 14.9399 5.77116 15.6885 5.02253C16.4372 4.27389 16.4372 3.06011 15.6885 2.31148ZM5.02253 7.64442C4.27389 6.89579 3.06011 6.89579 2.31148 7.64442C1.56284 8.39306 1.56284 9.60684 2.31148 10.3555C3.06011 11.1041 4.27389 11.1041 5.02253 10.3555C5.77116 9.60684 5.77116 8.39306 5.02253 7.64442ZM12.9775 12.9774C13.7261 12.2288 14.9399 12.2288 15.6885 12.9774C16.4372 13.7261 16.4372 14.9398 15.6885 15.6885C14.9399 16.4371 13.7261 16.4371 12.9775 15.6885C12.2289 14.9398 12.2289 13.7261 12.9775 12.9774Z" fill="#16856C"/>
</svg>
