<svg width="12" height="14" viewBox="0 0 12 14" fill="none" xmlns="http://www.w3.org/2000/svg">
<path d="M6 0.5C6.27614 0.5 6.5 0.723858 6.5 1V2.18587L7.09172 1.59388C7.28694 1.39857 7.60352 1.39849 7.79883 1.59371C7.99413 1.78893 7.99421 2.10551 7.79899 2.30082L6.5 3.60041V6.13382L8.69481 4.86632L9.16966 3.09266C9.24108 2.82591 9.51521 2.66756 9.78196 2.73898C10.0487 2.81039 10.2071 3.08453 10.1356 3.35127L9.91936 4.15914L11.0832 3.48702C11.3223 3.34892 11.6281 3.43083 11.7662 3.66996C11.9043 3.90909 11.8224 4.21489 11.5833 4.35299L10.4185 5.02569L11.2273 5.24232C11.4941 5.31376 11.6524 5.58791 11.581 5.85465C11.5095 6.12139 11.2354 6.27972 10.9686 6.20828L9.19377 5.73294L6.99973 7.00001L9.19376 8.26706L10.9686 7.79172C11.2354 7.72028 11.5095 7.87861 11.581 8.14535C11.6524 8.41209 11.4941 8.68624 11.2273 8.75768L10.4184 8.97431L11.5833 9.64702C11.8224 9.78512 11.9043 10.0909 11.7662 10.3301C11.6281 10.5692 11.3223 10.6511 11.0832 10.513L9.91936 9.84087L10.1356 10.6487C10.2071 10.9155 10.0487 11.1896 9.78196 11.261C9.51521 11.3324 9.24108 11.1741 9.16966 10.9073L8.69481 9.13369L6.5 7.86619V10.3996L7.79899 11.6992C7.99421 11.8945 7.99413 12.2111 7.79883 12.4063C7.60352 12.6015 7.28694 12.6015 7.09172 12.4062L6.5 11.8142V13C6.5 13.2761 6.27614 13.5 6 13.5C5.72386 13.5 5.5 13.2761 5.5 13V11.8142L4.90832 12.4062C4.71311 12.6015 4.39652 12.6015 4.20122 12.4063C4.00591 12.2111 4.00584 11.8945 4.20105 11.6992L5.5 10.3997V7.8661L3.30518 9.13361L2.8303 10.9073C2.75889 11.1741 2.48475 11.3324 2.218 11.261C1.95126 11.1896 1.79291 10.9155 1.86432 10.6487L2.08063 9.84078L0.916636 10.513C0.677505 10.6511 0.371701 10.5692 0.233603 10.3301C0.0955047 10.0909 0.177408 9.78512 0.416539 9.64702L1.58144 8.97429L0.772631 8.75768C0.505889 8.68624 0.347563 8.41209 0.419 8.14535C0.490438 7.87861 0.764587 7.72028 1.03133 7.79172L2.80612 8.26704L5.00012 7.00001L2.80611 5.73297L1.03133 6.20828C0.764587 6.27972 0.490438 6.12139 0.419 5.85465C0.347563 5.58791 0.505888 5.31376 0.77263 5.24232L1.58143 5.02571L0.416539 4.35299C0.177408 4.21489 0.0955047 3.90909 0.233603 3.66996C0.371701 3.43083 0.677505 3.34892 0.916636 3.48702L2.08063 4.15923L1.86432 3.35127C1.79291 3.08453 1.95126 2.81039 2.218 2.73898C2.48475 2.66756 2.75889 2.82591 2.8303 3.09266L3.30518 4.8664L5.5 6.13391V3.60037L4.20105 2.30082C4.00584 2.10551 4.00591 1.78893 4.20122 1.59371C4.39652 1.39849 4.71311 1.39857 4.90832 1.59388L5.5 2.18583V1C5.5 0.723858 5.72386 0.5 6 0.5Z" fill="#0063CC"/>
</svg>
