<svg width="14" height="12" viewBox="0 0 14 12" fill="none" xmlns="http://www.w3.org/2000/svg">
<path d="M10.0066 11.8334C9.80919 11.833 9.6148 11.785 9.43993 11.6934L6.99993 10.4134L4.55993 11.6934C4.36045 11.799 4.13537 11.8465 3.91023 11.8306C3.6851 11.8146 3.46895 11.7359 3.28633 11.6033C3.10371 11.4706 2.96195 11.2895 2.87715 11.0803C2.79234 10.8712 2.7679 10.6424 2.80659 10.42L3.27326 7.70005L1.27326 5.77338C1.11154 5.61643 0.997006 5.41732 0.942632 5.19862C0.888257 4.97992 0.896216 4.75036 0.965605 4.53594C1.03499 4.32153 1.16304 4.13083 1.33524 3.98546C1.50744 3.84008 1.71691 3.74583 1.93993 3.71338L4.69326 3.33338L5.91326 0.86005C6.01409 0.658555 6.16931 0.489315 6.36136 0.371493C6.55342 0.25367 6.77462 0.191971 6.99993 0.193383C7.22523 0.191971 7.44644 0.25367 7.63849 0.371493C7.83054 0.489315 7.98577 0.658555 8.08659 0.86005L9.30659 3.33338L12.0333 3.73338C12.2563 3.76583 12.4657 3.86008 12.6379 4.00546C12.8101 4.15083 12.9382 4.34153 13.0076 4.55594C13.077 4.77036 13.0849 4.99992 13.0306 5.21862C12.9762 5.43732 12.8616 5.63643 12.6999 5.79338L10.6999 7.72005L11.1666 10.44C11.1955 10.6131 11.1866 10.7903 11.1404 10.9595C11.0942 11.1287 11.0119 11.2859 10.8991 11.4203C10.7863 11.5546 10.6457 11.6629 10.487 11.7377C10.3283 11.8125 10.1553 11.8519 9.97993 11.8534L10.0066 11.8334ZM6.99993 9.33338C7.08061 9.33434 7.16017 9.35253 7.23326 9.38672L9.89993 10.7934C9.93288 10.8141 9.97101 10.8251 10.0099 10.8251C10.0488 10.8251 10.087 10.8141 10.1199 10.7934C10.1516 10.7699 10.1763 10.7383 10.1915 10.7019C10.2068 10.6656 10.212 10.6258 10.2066 10.5867L9.69326 7.60672C9.68007 7.52753 9.68588 7.44634 9.71022 7.36984C9.73457 7.29334 9.77674 7.22372 9.83326 7.16672L11.9999 5.06005C12.028 5.03311 12.0479 4.9988 12.0573 4.96107C12.0668 4.92333 12.0653 4.88369 12.0533 4.84672C12.0416 4.80933 12.0199 4.77586 11.9905 4.74999C11.9611 4.72412 11.9252 4.70684 11.8866 4.70005L8.89993 4.26672C8.82075 4.25583 8.74541 4.22587 8.68038 4.17942C8.61534 4.13297 8.56257 4.07141 8.52659 4.00005L7.19326 1.29338C7.17898 1.25426 7.15244 1.2208 7.11761 1.19798C7.08277 1.17515 7.0415 1.16419 6.99993 1.16672C6.96118 1.16548 6.9229 1.17554 6.88976 1.19566C6.85662 1.21578 6.83004 1.2451 6.81326 1.28005L5.47326 4.00005C5.43812 4.07266 5.38571 4.13555 5.32063 4.1832C5.25554 4.23085 5.17976 4.26182 5.09993 4.27338L2.10659 4.70672C2.06743 4.71197 2.0307 4.7287 2.00104 4.7548C1.97138 4.7809 1.95011 4.81521 1.93993 4.85338C1.92784 4.89036 1.92643 4.92999 1.93586 4.96773C1.9453 5.00547 1.96519 5.03978 1.99326 5.06672L4.15993 7.17338C4.21645 7.23039 4.25862 7.30001 4.28296 7.37651C4.3073 7.45301 4.31312 7.5342 4.29993 7.61338L3.79326 10.5934C3.78474 10.6319 3.78778 10.672 3.80202 10.7088C3.81625 10.7456 3.84104 10.7773 3.87326 10.8C3.90621 10.8208 3.94434 10.8318 3.98326 10.8318C4.02218 10.8318 4.06031 10.8208 4.09326 10.8L6.75993 9.39338C6.83453 9.35595 6.91648 9.33546 6.99993 9.33338Z" fill="#4AA23A"/>
</svg>
