<svg width="14" height="14" viewBox="0 0 14 14" fill="none" xmlns="http://www.w3.org/2000/svg">
<path fill-rule="evenodd" clip-rule="evenodd" d="M9.71058 2.31416C10.3932 2.99683 10.7918 3.91046 10.8303 4.87139C10.5843 4.90878 10.355 5.02372 10.177 5.20172C9.95856 5.42013 9.83508 5.71586 9.83333 6.02474V9.35807C9.83508 9.66695 9.95856 9.96268 10.177 10.1811C10.2718 10.2759 10.3812 10.3529 10.4999 10.4097V10.6914C10.4999 10.9124 10.4121 11.1244 10.2558 11.2807C10.0996 11.4369 9.8876 11.5247 9.66659 11.5247H8.65596C8.58953 11.3605 8.49042 11.2096 8.36273 11.0819C8.11268 10.8319 7.77354 10.6914 7.41992 10.6914H6.58659C6.23297 10.6914 5.89383 10.8319 5.64378 11.0819C5.39373 11.332 5.25326 11.6711 5.25326 12.0247C5.25326 12.3784 5.39373 12.7175 5.64378 12.9675C5.89383 13.2176 6.23297 13.3581 6.58659 13.3581H7.41992C7.77354 13.3581 8.11268 13.2176 8.36273 12.9675C8.49042 12.8399 8.58953 12.689 8.65596 12.5247H9.66659C10.1528 12.5247 10.6191 12.3316 10.963 11.9878C11.3068 11.644 11.4999 11.1776 11.4999 10.6914V10.5247H11.6667C12.1529 10.5247 12.6192 10.3316 12.963 9.98777C13.3068 9.64395 13.5 9.17764 13.5 8.69141V6.69141C13.5 6.20518 13.3068 5.73886 12.963 5.39504C12.6581 5.09011 12.2568 4.90369 11.8307 4.86542C11.7904 3.64137 11.2865 2.47586 10.4177 1.60706C9.51126 0.700631 8.28188 0.191406 7 0.191406C5.71812 0.191406 4.48874 0.700631 3.58232 1.60706C2.71351 2.47586 2.20962 3.64137 2.16929 4.86542C1.7432 4.90369 1.34191 5.09011 1.03697 5.39504C0.693154 5.73886 0.5 6.20518 0.5 6.69141V8.69141C0.5 9.17764 0.693154 9.64395 1.03697 9.98777C1.38079 10.3316 1.8471 10.5247 2.33333 10.5247H3C3.30942 10.5247 3.60617 10.4018 3.82496 10.183C4.04375 9.96424 4.16667 9.66749 4.16667 9.35807V6.02474C4.16667 5.71532 4.04375 5.41857 3.82496 5.19978C3.64658 5.02141 3.4164 4.90676 3.16977 4.87049C3.20842 3.90989 3.60697 2.99661 4.28942 2.31416C5.00831 1.59527 5.98334 1.19141 7 1.19141C8.01666 1.19141 8.99169 1.59527 9.71058 2.31416ZM11 5.85807C10.9558 5.85807 10.9134 5.87563 10.8821 5.90689C10.8509 5.93814 10.8333 5.98054 10.8333 6.02474V9.35807C10.8333 9.40228 10.8509 9.44467 10.8821 9.47592C10.9134 9.50718 10.9558 9.52474 11 9.52474H11.6667C11.8877 9.52474 12.0996 9.43694 12.2559 9.28066C12.4122 9.12438 12.5 8.91242 12.5 8.69141V6.69141C12.5 6.47039 12.4122 6.25843 12.2559 6.10215C12.0996 5.94587 11.8877 5.85807 11.6667 5.85807H11ZM7.75326 12.0247C7.75326 11.9363 7.71814 11.8516 7.65562 11.789C7.59311 11.7265 7.50833 11.6914 7.41992 11.6914H6.58659C6.49818 11.6914 6.4134 11.7265 6.35089 11.789C6.28837 11.8516 6.25326 11.9363 6.25326 12.0247C6.25326 12.1131 6.28837 12.1979 6.35089 12.2604C6.4134 12.323 6.49818 12.3581 6.58659 12.3581H7.41992C7.50833 12.3581 7.59311 12.323 7.65562 12.2604C7.71814 12.1979 7.75326 12.1131 7.75326 12.0247ZM2.33333 5.85807C2.11232 5.85807 1.90036 5.94587 1.74408 6.10215C1.5878 6.25843 1.5 6.47039 1.5 6.69141V8.69141C1.5 8.91242 1.5878 9.12438 1.74408 9.28066C1.90036 9.43694 2.11232 9.52474 2.33333 9.52474H3C3.0442 9.52474 3.0866 9.50718 3.11785 9.47592C3.14911 9.44467 3.16667 9.40228 3.16667 9.35807V6.02474C3.16667 5.98054 3.14911 5.93814 3.11785 5.90689C3.0866 5.87563 3.0442 5.85807 3 5.85807H2.33333Z" fill="white"/>
</svg>
