<svg width="14" height="14" viewBox="0 0 14 14" fill="none" xmlns="http://www.w3.org/2000/svg">
<path d="M4.33338 5.11367C4.18518 5.10841 4.04176 5.05991 3.92078 4.97415C3.7998 4.88838 3.70656 4.7691 3.65254 4.63099C3.59852 4.49288 3.58609 4.34199 3.61677 4.19691C3.64745 4.05182 3.71991 3.91888 3.82522 3.81447C3.93052 3.71005 4.06407 3.63873 4.20942 3.60928C4.35476 3.57984 4.50554 3.59355 4.64318 3.64875C4.78082 3.70394 4.89931 3.79819 4.98404 3.9199C5.06878 4.0416 5.11605 4.18543 5.12005 4.33367C5.12285 4.43743 5.10436 4.54066 5.06573 4.637C5.0271 4.73334 4.96914 4.82075 4.89544 4.89383C4.82173 4.96692 4.73383 5.02413 4.63717 5.06193C4.5405 5.09974 4.43711 5.11735 4.33338 5.11367Z" fill="#FFA07A"/>
<path d="M8.26672 13.5003C7.79007 13.4932 7.33526 13.2993 7.00005 12.9603L1.03338 7.00034C0.692652 6.65872 0.500921 6.19617 0.50005 5.71367V3.86034C0.498268 3.62109 0.544558 3.38392 0.636174 3.16289C0.727789 2.94187 0.862863 2.7415 1.03338 2.57367L2.55338 1.04701C2.89331 0.711882 3.34943 0.520837 3.82672 0.513672H5.72672C6.20921 0.514543 6.67176 0.706275 7.01338 1.04701L12.9601 7.00034C13.1312 7.17014 13.267 7.37214 13.3597 7.59469C13.4524 7.81723 13.5001 8.05593 13.5001 8.297C13.5001 8.53808 13.4524 8.77678 13.3597 8.99932C13.267 9.22187 13.1312 9.42387 12.9601 9.59367L9.56672 12.987C9.21857 13.3237 8.75097 13.5083 8.26672 13.5003ZM3.83338 1.50034C3.61783 1.50655 3.41278 1.59477 3.26005 1.74701L1.74005 3.28034C1.66392 3.35652 1.60354 3.44695 1.56236 3.54647C1.52118 3.64598 1.5 3.75264 1.50005 3.86034V5.73367C1.50068 5.95104 1.58691 6.15941 1.74005 6.31367L7.66672 12.2537C7.82474 12.4072 8.03639 12.4931 8.25672 12.4931C8.47704 12.4931 8.68869 12.4072 8.84672 12.2537L12.2401 8.86034C12.3177 8.78293 12.3792 8.69097 12.4212 8.58973C12.4632 8.48849 12.4849 8.37995 12.4849 8.27034C12.4849 8.16073 12.4632 8.05219 12.4212 7.95095C12.3792 7.84971 12.3177 7.75775 12.2401 7.68034L6.33338 1.74034C6.2572 1.66421 6.16677 1.60382 6.06726 1.56264C5.96774 1.52147 5.86108 1.50029 5.75338 1.50034H3.83338Z" fill="#FFA07A"/>
</svg>
