<svg width="16" height="14" viewBox="0 0 16 14" fill="none" xmlns="http://www.w3.org/2000/svg">
<path d="M8.00001 8.24642C7.8674 8.24642 7.74023 8.19374 7.64646 8.09997C7.55269 8.0062 7.50001 7.87903 7.50001 7.74642V5.24642C7.50001 5.11381 7.55269 4.98663 7.64646 4.89286C7.74023 4.7991 7.8674 4.74642 8.00001 4.74642C8.13262 4.74642 8.2598 4.7991 8.35357 4.89286C8.44733 4.98663 8.50001 5.11381 8.50001 5.24642V7.74642C8.50001 7.87903 8.44733 8.0062 8.35357 8.09997C8.2598 8.19374 8.13262 8.24642 8.00001 8.24642Z" fill="#6D0606"/>
<path d="M8.00001 10.5798C7.8232 10.5798 7.65363 10.5095 7.52861 10.3845C7.40358 10.2595 7.33335 10.0899 7.33335 9.91308C7.33408 9.73819 7.40352 9.57059 7.52668 9.44642C7.6037 9.36784 7.69898 9.30955 7.80401 9.27674C7.90903 9.24394 8.02055 9.23764 8.1286 9.25841C8.23666 9.27918 8.33789 9.32637 8.42327 9.39577C8.50866 9.46517 8.57553 9.55463 8.61794 9.65617C8.66034 9.7577 8.67696 9.86815 8.6663 9.97766C8.65564 10.0872 8.61804 10.1924 8.55686 10.2838C8.49567 10.3753 8.4128 10.4501 8.31564 10.5018C8.21848 10.5534 8.11004 10.5802 8.00001 10.5798Z" fill="#6D0606"/>
<path d="M13.1067 13.5264H2.89335C2.53298 13.5259 2.17906 13.4308 1.86692 13.2507C1.55478 13.0706 1.29535 12.8118 1.11453 12.5001C0.933706 12.1884 0.837818 11.8347 0.836441 11.4743C0.835063 11.1139 0.928244 10.7595 1.10668 10.4464L6.21335 1.51308C6.3924 1.19695 6.65212 0.93399 6.966 0.751034C7.27989 0.568077 7.6367 0.47168 8.00001 0.47168C8.36333 0.47168 8.72014 0.568077 9.03402 0.751034C9.34791 0.93399 9.60763 1.19695 9.78668 1.51308L14.8933 10.4464C15.0718 10.7595 15.165 11.1139 15.1636 11.4743C15.1622 11.8347 15.0663 12.1884 14.8855 12.5001C14.7047 12.8118 14.4452 13.0706 14.1331 13.2507C13.821 13.4308 13.467 13.5259 13.1067 13.5264ZM8.00001 1.47308C7.81314 1.47238 7.62944 1.52141 7.46777 1.61513C7.30609 1.70885 7.17227 1.8439 7.08001 2.00642L2.00001 10.9398C1.90772 11.101 1.85941 11.2836 1.85992 11.4693C1.86043 11.6551 1.90974 11.8374 2.00292 11.9981C2.09609 12.1588 2.22986 12.2922 2.39081 12.3849C2.55177 12.4776 2.73426 12.5264 2.92001 12.5264H13.1067C13.2902 12.5219 13.4693 12.4697 13.6266 12.3751C13.7839 12.2805 13.9139 12.1467 14.004 11.9868C14.094 11.8269 14.141 11.6463 14.1403 11.4627C14.1396 11.2792 14.0913 11.099 14 10.9398L8.92001 2.00642C8.82776 1.8439 8.69393 1.70885 8.53226 1.61513C8.37058 1.52141 8.18689 1.47238 8.00001 1.47308Z" fill="#6D0606"/>
</svg>
