<svg width="18" height="18" fill="none" xmlns="http://www.w3.org/2000/svg"><path fill-rule="evenodd" clip-rule="evenodd" d="M5.875 2.112v-.625a.625.625 0 0 0-1.25 0v.625H4A3.125 3.125 0 0 0 .875 5.237v8.75A3.125 3.125 0 0 0 4 17.112h10a3.125 3.125 0 0 0 3.125-3.125v-8.75A3.125 3.125 0 0 0 14 2.112h-.625v-.625a.625.625 0 1 0-1.25 0v.625h-6.25ZM4.81 4.427a.633.633 0 0 0 .44.185.633.633 0 0 0 .625-.625v-.625h6.25v.625a.634.634 0 0 0 .625.625.633.633 0 0 0 .625-.625v-.625H14a1.875 1.875 0 0 1 1.875 1.875V6.28H2.125V5.237A1.875 1.875 0 0 1 4 3.362h.625v.625a.633.633 0 0 0 .185.44Zm11.065 3.102H2.125v6.458A1.875 1.875 0 0 0 4 15.862h10a1.875 1.875 0 0 0 1.875-1.875V7.53Z" fill="#FFA07A"/></svg>