<svg width="42" height="38" fill="none" xmlns="http://www.w3.org/2000/svg"><path fill-rule="evenodd" clip-rule="evenodd" d="M6.5 24A1.5 1.5 0 0 1 8 22.5h2a1.5 1.5 0 0 1 0 3H8A1.5 1.5 0 0 1 6.5 24ZM28.5 8A1.5 1.5 0 0 1 30 6.5h2a1.5 1.5 0 0 1 0 3h-2A1.5 1.5 0 0 1 28.5 8ZM22.475 13.525a3.5 3.5 0 0 0-4.95 4.95 1.5 1.5 0 1 1-2.121 2.121 6.5 6.5 0 1 1 9.192-9.192 1.5 1.5 0 1 1-2.121 2.121Z" fill="#C2CAC8"/><path fill-rule="evenodd" clip-rule="evenodd" d="M8 3.5A4.5 4.5 0 0 0 3.5 8v16A4.5 4.5 0 0 0 8 28.5h8a1.5 1.5 0 0 1 0 3H8A7.5 7.5 0 0 1 .5 24V8A7.5 7.5 0 0 1 8 .5h24A7.5 7.5 0 0 1 39.5 8v6a1.5 1.5 0 0 1-3 0V8A4.5 4.5 0 0 0 32 3.5H8Z" fill="#C2CAC8"/><path fill-rule="evenodd" clip-rule="evenodd" d="M31 19.5a7.5 7.5 0 1 0 0 15 7.5 7.5 0 0 0 0-15ZM20.5 27c0-5.799 4.701-10.5 10.5-10.5S41.5 21.201 41.5 27 36.799 37.5 31 37.5 20.5 32.799 20.5 27Z" fill="#C2CAC8"/><path fill-rule="evenodd" clip-rule="evenodd" d="M34.56 24.713a1.5 1.5 0 0 1 0 2.122l-3 3a1.5 1.5 0 0 1-2.12 0l-2-2a1.5 1.5 0 0 1 2.12-2.122l.94.94 1.94-1.94a1.5 1.5 0 0 1 2.12 0Z" fill="#C2CAC8"/></svg>