<svg width="13" height="12" fill="none" xmlns="http://www.w3.org/2000/svg"><path d="M.817 6.26a.5.5 0 0 0 .856-.32 4.833 4.833 0 0 1 8.254-3.333c.107.108.208.222.305.34H9.167a.5.5 0 1 0 0 1h2.326a.5.5 0 0 0 .534-.5V1.093a.5.5 0 0 0-1 0V2.34A5.827 5.827 0 0 0 .673 5.907c0 .132.052.259.144.353ZM2.373 10.127A5.84 5.84 0 0 0 6.5 11.833 5.813 5.813 0 0 0 12.327 6a.5.5 0 0 0-.5-.5.527.527 0 0 0-.5.5A4.827 4.827 0 0 1 3.08 9.42a4.967 4.967 0 0 1-.326-.367h1.113a.5.5 0 1 0 0-1H1.855a.502.502 0 0 0-.07 0h-.278a.5.5 0 0 0-.5.5v2.354a.507.507 0 0 0 .5.5.5.5 0 0 0 .5-.5V9.72c.115.14.238.276.366.406Z" fill="#16856C"/></svg>