<svg width="40" height="40" fill="none" xmlns="http://www.w3.org/2000/svg"><path d="M21.5 12v.531a4.38 4.38 0 0 1 3.24 2.109 1.48 1.48 0 0 1-.5 2 1.5 1.5 0 0 1-2-.48 1.34 1.34 0 0 0-1.18-.72h-.656a1.52 1.52 0 0 1-.404.06 1.52 1.52 0 0 1-.404-.06H18.8a1.32 1.32 0 0 0-.32 2.56l3.76.94a4.3 4.3 0 0 1-.74 8.472V28a1.52 1.52 0 0 1-1.5 1.5 1.52 1.52 0 0 1-1.5-1.5v-.531a4.38 4.38 0 0 1-3.24-2.109 1.5 1.5 0 1 1 2.56-1.56 1.38 1.38 0 0 0 1.18.7h2.2a1.3 1.3 0 0 0 1.3-1.3 1.32 1.32 0 0 0-1-1.28l-3.74-.94a4.3 4.3 0 0 1 .74-8.472V12a1.5 1.5 0 1 1 3 0Z" fill="#4AA23A"/><path fill-rule="evenodd" clip-rule="evenodd" d="M9.52 36.448A19.5 19.5 0 0 0 20 39.5a19.52 19.52 0 0 0 19.2-22.88A19.5 19.5 0 1 0 9.52 36.448ZM17.1 3.76A15.8 15.8 0 0 1 20 3.5a16.48 16.48 0 0 1 16.2 13.64A16.48 16.48 0 1 1 17.1 3.76Z" fill="#4AA23A"/></svg>