<svg width="13" height="12" fill="none" xmlns="http://www.w3.org/2000/svg"><path d="M2.815 11.018c.093.093.22.147.352.148a.506.506 0 0 0 .5-.5V2.54l1.146 1.146a.493.493 0 0 0 .545.11.5.5 0 0 0 .162-.816L3.533.993a.498.498 0 0 0-.72-.014.49.49 0 0 0-.011.012L.813 2.98a.5.5 0 1 0 .707.706L2.667 2.54v8.126a.507.507 0 0 0 .148.352ZM9.333 9.46V1.333a.5.5 0 1 1 1 0V9.46l1.147-1.147a.498.498 0 0 1 .866.35.5.5 0 0 1-.16.357l-2 2a.494.494 0 0 1-.544.109.494.494 0 0 1-.162-.11l-2-2a.5.5 0 1 1 .707-.706L9.333 9.46Z" fill="#003879"/></svg>