<svg width="14" height="18" fill="none" xmlns="http://www.w3.org/2000/svg"><path d="M4.108 11.02a.625.625 0 0 1 .884 0l.624.625V8.154a.625.625 0 0 1 1.25 0v3.491l.525-.525a.625.625 0 1 1 .884.884l-1.583 1.583-.008.009a.622.622 0 0 1-.443.183h-.004a.623.623 0 0 1-.446-.192l-1.683-1.683a.625.625 0 0 1 0-.884Z" fill="#FFA07A"/><path fill-rule="evenodd" clip-rule="evenodd" d="M.542 3.154A2.291 2.291 0 0 1 2.833.862H8.81c.607 0 1.19.242 1.62.672l2.357 2.356c.43.43.671 1.013.671 1.62v9.31a2.291 2.291 0 0 1-2.292 2.292H2.833a2.291 2.291 0 0 1-2.291-2.291V3.154ZM12.09 5.029a1.043 1.043 0 0 0-.187-.255L9.546 2.418a1.042 1.042 0 0 0-.255-.187v2.59c0 .114.094.208.209.208h2.59ZM8.04 2.112v2.709c0 .805.654 1.458 1.459 1.458h2.708v8.542c0 .575-.466 1.041-1.042 1.041H2.833a1.041 1.041 0 0 1-1.042-1.041V3.154c0-.576.467-1.042 1.042-1.042h5.208Z" fill="#FFA07A"/></svg>