<svg width="20" height="20" fill="none" xmlns="http://www.w3.org/2000/svg"><path d="M3.247 3.997A3.751 3.751 0 0 1 7 .247h9.003a3.751 3.751 0 0 1 3.752 3.75v12.005a3.751 3.751 0 0 1-3.752 3.752H7a3.751 3.751 0 0 1-3.752-3.752v-3a.75.75 0 0 1 1.5 0v3A2.251 2.251 0 0 0 7 18.254h9.003a2.251 2.251 0 0 0 2.252-2.252V3.997a2.251 2.251 0 0 0-2.252-2.25H7a2.251 2.251 0 0 0-2.252 2.25V7a.75.75 0 1 1-1.5 0V3.997Z" fill="#16856C"/><path d="M9.47 6.468a.75.75 0 0 1 1.06 0l2.995 2.995a.748.748 0 0 1 0 1.074l-2.995 2.994a.75.75 0 0 1-1.06-1.06l1.72-1.721H.996a.75.75 0 1 1 0-1.5H11.19L9.47 7.529a.75.75 0 0 1 0-1.06Z" fill="#16856C"/></svg>