<svg width="20" height="20" fill="none" xmlns="http://www.w3.org/2000/svg"><path d="M10 10.75a.74.74 0 0 1-.53-.22.75.75 0 0 1 0-1.06l7.72-7.72H12a.75.75 0 1 1 0-1.5h7.06a.74.74 0 0 1 .4.16l.11.1a.75.75 0 0 1 .18.48v7a.75.75 0 1 1-1.5 0V2.81l-7.72 7.72a.74.74 0 0 1-.53.22Z" fill="#16856C"/><path d="M17 19.75H3A2.75 2.75 0 0 1 .25 17V3A2.75 2.75 0 0 1 3 .25h4a.75.75 0 0 1 0 1.5H3A1.25 1.25 0 0 0 1.75 3v14A1.25 1.25 0 0 0 3 18.25h14A1.25 1.25 0 0 0 18.25 17v-4a.75.75 0 1 1 1.5 0v4A2.75 2.75 0 0 1 17 19.75Z" fill="#16856C"/></svg>