<svg width="22" height="20" fill="none" xmlns="http://www.w3.org/2000/svg"><path fill-rule="evenodd" clip-rule="evenodd" d="M13.577 4.435a.75.75 0 0 0 .275.236l5.226 4.479a.76.76 0 0 0 .49.18.75.75 0 0 0 .47-1.32l-.97-.831V1.75a1.5 1.5 0 0 0-1.5-1.5h-2.63a1.5 1.5 0 0 0-1.5 1.5v.603l-1.1-.943a2.73 2.73 0 0 0-3.58 0l-7.7 6.6a.758.758 0 0 0 1 1.14l.05-.043v8.143h-.54a.75.75 0 1 0 0 1.5h9a.75.75 0 1 0 0-1.5h-2.25V13a.25.25 0 0 1 .25-.25h2a.75.75 0 1 0 0-1.5h-2A1.75 1.75 0 0 0 6.818 13v4.25h-3.21V7.822l6.15-5.272a1.24 1.24 0 0 1 1.62 0l2.199 1.885Zm3.991 1.458V1.75h-2.63v1.889l2.63 2.254Z" fill="#1F7965"/><path fill-rule="evenodd" clip-rule="evenodd" d="M15.607 19.555c.304.129.63.195.961.195v-.01a2.5 2.5 0 0 0 1.77-.74l2.12-2.14a3 3 0 0 0 0-4.23 3 3 0 0 0-3.89-.27 3 3 0 0 0-3.89 4.49l2.12 2.15c.23.237.505.426.809.555Zm-1.829-5.875a1.44 1.44 0 0 1 1-.43 1.441 1.441 0 0 1 1.03.48l.22.23a.76.76 0 0 0 .54.23.72.72 0 0 0 .53-.23l.23-.23a1.47 1.47 0 0 1 2.06 0 1.54 1.54 0 0 1 0 2.13L17.268 18a1 1 0 0 1-.7.3 1 1 0 0 1-.7-.3l-2.09-2.19a1.54 1.54 0 0 1 0-2.13Z" fill="#1F7965"/></svg>