<svg width="18" height="18" fill="none" xmlns="http://www.w3.org/2000/svg"><path d="M8.412 6.568a.833.833 0 1 0 .926-1.386.833.833 0 0 0-.926 1.386ZM8.167 12.542a.625.625 0 0 1 0-1.25h.341V9h-.341a.625.625 0 0 1 0-1.25h.958a.633.633 0 0 1 .625.625v2.917h.342a.625.625 0 1 1 0 1.25H8.167Z" fill="#16856C"/><path fill-rule="evenodd" clip-rule="evenodd" d="M4.486 15.756A8.125 8.125 0 0 0 9 17.125 8.133 8.133 0 0 0 17.125 9a8.125 8.125 0 1 0-12.639 6.756ZM5.18 3.284A6.875 6.875 0 0 1 9 2.125 6.883 6.883 0 0 1 15.875 9 6.875 6.875 0 1 1 5.18 3.284Z" fill="#16856C"/></svg>