<svg width="18" height="17" fill="none" xmlns="http://www.w3.org/2000/svg"><path fill-rule="evenodd" clip-rule="evenodd" d="M14.833 14.612c-.46 0-.911-.139-1.291-.4l-3.067-2.1H8.147l.495 1.242a2.167 2.167 0 0 1-.225 2 2.125 2.125 0 0 1-2.948.557 2.108 2.108 0 0 1-.777-.982l-1.215-3.057A3.957 3.957 0 0 1 .875 8.154V7.32a3.958 3.958 0 0 1 3.958-3.958h5.642l3.067-2.1a2.291 2.291 0 0 1 3.583 1.892v9.166a2.3 2.3 0 0 1-2.292 2.292Zm-9.91-2.5.935 2.358a.891.891 0 0 0 1.525.175.833.833 0 0 0 .092-.833l-.675-1.7H4.924Zm2.319-1.25H4.833a2.717 2.717 0 0 1-2.708-2.708V7.32a2.717 2.717 0 0 1 2.708-2.708h5.209v6.25h-2.8Zm7 2.292-2.95-1.998V4.317l2.95-1.997a1.05 1.05 0 0 1 1.666.834v9.166a1.05 1.05 0 0 1-1.666.834Z" fill="#FFA07A"/></svg>