<svg width="20" height="20" fill="none" xmlns="http://www.w3.org/2000/svg"><path fill-rule="evenodd" clip-rule="evenodd" d="M10.75 7.674a3.75 3.75 0 1 0-1.5 0V15a.76.76 0 0 0 .75.75.76.76 0 0 0 .75-.75V7.674ZM9.997 6.25a2.25 2.25 0 1 0 .006-4.5 2.25 2.25 0 0 0-.006 4.5Z" fill="#fff"/><path d="M10 19.75c-4.73 0-9.75-1.49-9.75-4.25 0-1.93 2.55-3.47 6.65-4a.739.739 0 0 1 .84.64.75.75 0 0 1-.64.86c-3.35.46-5.35 1.66-5.35 2.55 0 1.12 3.21 2.75 8.25 2.75s8.25-1.63 8.25-2.75c0-.89-2-2.09-5.35-2.55a.75.75 0 0 1-.64-.85.742.742 0 0 1 .84-.64c4.1.57 6.65 2.11 6.65 4 0 2.75-5.02 4.24-9.75 4.24Z" fill="#fff"/></svg>