<svg width="18" height="18" fill="none" xmlns="http://www.w3.org/2000/svg"><path fill-rule="evenodd" clip-rule="evenodd" d="M16.75 1.25a3.417 3.417 0 0 0-5.735 3.234L6.312 6.836a3.417 3.417 0 1 0 0 4.329l4.703 2.35a3.417 3.417 0 1 0 .67-1.342l-4.701-2.35a3.434 3.434 0 0 0 0-1.646l4.7-2.35a3.417 3.417 0 1 0 5.065-4.575Zm-1.062 1.061a1.917 1.917 0 1 0-2.71 2.711 1.917 1.917 0 0 0 2.71-2.71ZM5.024 7.644a1.917 1.917 0 1 0-2.712 2.711 1.917 1.917 0 0 0 2.712-2.71Zm7.954 5.333a1.917 1.917 0 1 1 2.711 2.712 1.917 1.917 0 0 1-2.71-2.712Z" fill="#16856C"/></svg>