<svg width="12" height="14" fill="none" xmlns="http://www.w3.org/2000/svg"><path d="M6 .5a.5.5 0 0 1 .5.5v1.186l.592-.592a.5.5 0 1 1 .707.707L6.5 3.6v2.533l2.195-1.268.475-1.773a.5.5 0 1 1 .966.258l-.217.808 1.164-.672a.5.5 0 0 1 .5.866l-1.165.673.81.216a.5.5 0 1 1-.26.966l-1.774-.475L7 7l2.194 1.267 1.775-.475a.5.5 0 0 1 .258.966l-.809.216 1.165.673a.5.5 0 0 1-.5.866L9.92 9.841l.217.808a.5.5 0 1 1-.966.258l-.475-1.773L6.5 7.866V10.4l1.299 1.3a.5.5 0 0 1-.707.706l-.592-.592V13a.5.5 0 0 1-1 0v-1.186l-.592.592a.5.5 0 0 1-.707-.707L5.5 10.4V7.867L3.305 9.134l-.475 1.773a.5.5 0 1 1-.966-.258l.217-.808-1.164.672a.5.5 0 1 1-.5-.866l1.164-.673-.808-.216a.5.5 0 0 1 .258-.966l1.775.475L5 7 2.806 5.733l-1.775.475a.5.5 0 0 1-.258-.966l.808-.216-1.164-.673a.5.5 0 1 1 .5-.866l1.164.672-.217-.808a.5.5 0 0 1 .966-.258l.475 1.773L5.5 6.134V3.6L4.201 2.3a.5.5 0 0 1 .707-.706l.592.592V1A.5.5 0 0 1 6 .5Z" fill="#0063CC"/></svg>