<svg width="14" height="12" fill="none" xmlns="http://www.w3.org/2000/svg"><path d="M10.007 11.833c-.198 0-.392-.048-.567-.14L7 10.413l-2.44 1.28a1.207 1.207 0 0 1-1.753-1.273l.466-2.72-2-1.927a1.207 1.207 0 0 1 .667-2.06l2.753-.38L5.913.86A1.207 1.207 0 0 1 7 .193 1.207 1.207 0 0 1 8.087.86l1.22 2.473 2.726.4a1.206 1.206 0 0 1 .667 2.06l-2 1.927.467 2.72a1.213 1.213 0 0 1-1.187 1.413l.027-.02ZM7 9.333c.08.001.16.02.233.054L9.9 10.793a.207.207 0 0 0 .22 0 .219.219 0 0 0 .087-.206l-.514-2.98a.507.507 0 0 1 .14-.44L12 5.06a.206.206 0 0 0 .053-.213.214.214 0 0 0-.166-.147L8.9 4.267A.493.493 0 0 1 8.527 4L7.193 1.293A.193.193 0 0 0 7 1.167a.2.2 0 0 0-.187.113L5.473 4a.493.493 0 0 1-.373.273l-2.993.434a.2.2 0 0 0-.167.146.207.207 0 0 0 .053.214L4.16 7.173a.507.507 0 0 1 .14.44l-.507 2.98a.2.2 0 0 0 .08.207.206.206 0 0 0 .22 0L6.76 9.393a.567.567 0 0 1 .24-.06Z" fill="#4AA23A"/></svg>