<svg width="14" height="14" fill="none" xmlns="http://www.w3.org/2000/svg"><path fill-rule="evenodd" clip-rule="evenodd" d="M9.71 2.314a3.834 3.834 0 0 1 1.12 2.557 1.173 1.173 0 0 0-.997 1.154v3.333a1.173 1.173 0 0 0 .667 1.052v.281a.833.833 0 0 1-.833.834H8.656a1.333 1.333 0 0 0-1.236-.834h-.833a1.334 1.334 0 0 0 0 2.667h.833a1.333 1.333 0 0 0 1.236-.833h1.01A1.834 1.834 0 0 0 11.5 10.69v-.166h.167A1.833 1.833 0 0 0 13.5 8.69v-2a1.833 1.833 0 0 0-1.67-1.826 4.833 4.833 0 0 0-9.66 0A1.833 1.833 0 0 0 .5 6.691v2a1.833 1.833 0 0 0 1.833 1.834H3a1.167 1.167 0 0 0 1.167-1.167V6.025A1.167 1.167 0 0 0 3.17 4.87a3.833 3.833 0 0 1 6.54-2.556ZM11 5.858a.167.167 0 0 0-.167.167v3.333a.167.167 0 0 0 .167.167h.667a.833.833 0 0 0 .833-.834v-2a.833.833 0 0 0-.833-.833H11Zm-3.247 6.167a.333.333 0 0 0-.333-.334h-.833a.333.333 0 1 0 0 .667h.833a.333.333 0 0 0 .333-.333Zm-5.42-6.167a.833.833 0 0 0-.833.833v2a.833.833 0 0 0 .833.834H3a.167.167 0 0 0 .167-.167V6.025A.167.167 0 0 0 3 5.858h-.667Z" fill="#fff"/></svg>