<svg width="14" height="14" fill="none" xmlns="http://www.w3.org/2000/svg"><path d="M4.333 5.114a.76.76 0 1 1 .054-1.52.76.76 0 0 1-.054 1.52Z" fill="#FFA07A"/><path d="M8.267 13.5A1.82 1.82 0 0 1 7 12.96L1.033 7A1.827 1.827 0 0 1 .5 5.714V3.86a1.787 1.787 0 0 1 .533-1.286l1.52-1.527c.34-.335.796-.526 1.274-.533h1.9c.482 0 .945.192 1.286.533L12.96 7a1.827 1.827 0 0 1 0 2.594l-3.393 3.393a1.827 1.827 0 0 1-1.3.513Zm-4.434-12a.847.847 0 0 0-.573.247L1.74 3.28a.82.82 0 0 0-.24.58v1.874c0 .217.087.425.24.58l5.927 5.94a.847.847 0 0 0 1.18 0L12.24 8.86a.833.833 0 0 0 0-1.18L6.333 1.74a.82.82 0 0 0-.58-.24h-1.92Z" fill="#FFA07A"/></svg>