<svg width="16" height="14" fill="none" xmlns="http://www.w3.org/2000/svg"><path d="M8 8.246a.5.5 0 0 1-.5-.5v-2.5a.5.5 0 0 1 1 0v2.5a.5.5 0 0 1-.5.5ZM8 10.58a.667.667 0 1 1 .618-.924.667.667 0 0 1-.618.924Z" fill="#6D0606"/><path d="M13.107 13.526H2.893a2.06 2.06 0 0 1-1.786-3.08l5.106-8.933a2.053 2.053 0 0 1 3.574 0l5.106 8.933a2.06 2.06 0 0 1-1.786 3.08ZM8 1.473a1.053 1.053 0 0 0-.92.533L2 10.94a1.06 1.06 0 0 0 .92 1.586h10.187A1.06 1.06 0 0 0 14 10.94L8.92 2.006A1.053 1.053 0 0 0 8 1.473Z" fill="#6D0606"/></svg>